<svg width="1287" height="470" viewBox="0 0 1287 470" fill="none" xmlns="http://www.w3.org/2000/svg">
<rect width="1287" height="470" fill="#E5E5E5"/>
<rect width="1287" height="470" fill="#D8E9CE"/>
<g clip-path="url(#clip0_5_69)">
<path d="M251.505 283.273H192.233V362.738H251.505V283.273Z" fill="#DB8689"/>
<path d="M192.233 362.738V379.824H234.975L241.169 373.629L247.364 379.824H251.506V362.738H192.233Z" fill="#283038"/>
<path d="M385.993 283.273H326.722V362.738H385.993V283.273Z" fill="#DB8689"/>
<path d="M326.722 362.738V379.824H369.462L375.657 373.629L381.853 379.824H385.993V362.738H326.722Z" fill="#283038"/>
<path d="M129.081 204.089H111.496C99.092 204.089 89 193.996 89 181.591C89 169.186 99.092 159.094 111.496 159.094C114.961 159.094 117.77 161.903 117.77 165.368C117.77 168.833 114.96 171.642 111.496 171.642C106.01 171.642 101.548 176.105 101.548 181.591C101.548 187.077 106.01 191.54 111.496 191.54H129.081C132.546 191.54 135.355 194.349 135.355 197.814C135.355 201.279 132.546 204.089 129.081 204.089Z" fill="#FF9C9F"/>
<path d="M129.081 204.089C116.677 204.089 106.585 193.997 106.585 181.592C106.585 169.187 116.677 159.095 129.081 159.095C141.485 159.095 151.579 169.187 151.579 181.592C151.579 193.997 141.485 204.089 129.081 204.089ZM129.081 171.642C123.595 171.642 119.133 176.105 119.133 181.591C119.133 187.077 123.595 191.54 129.081 191.54C134.567 191.54 139.031 187.077 139.031 181.591C139.031 176.106 134.567 171.642 129.081 171.642Z" fill="#DB8689"/>
<path d="M394.202 119.371C407.06 98.727 440.359 81.794 461.284 94.367L432.45 142.353L394.202 119.371Z" fill="#FF9C9F"/>
<path d="M464.985 153.319C472.988 134.631 473.912 107.142 461.284 94.368C444.077 89.214 420.238 102.937 407.494 118.774C407.487 118.789 407.295 119.081 407.21 119.219C405.267 122.452 406.315 126.648 409.546 128.589L455.357 156.116C458.589 158.057 462.783 157.012 464.727 153.779C464.81 153.64 464.978 153.333 464.985 153.319Z" fill="#FFB6B6"/>
<path d="M151.016 362.738V379.824H193.757L199.951 373.629L206.146 379.824H210.288V362.738H151.016Z" fill="#333E48"/>
<path d="M388.813 106.01C356.107 106.01 327.265 122.558 310.202 147.738H219.409C167.372 147.738 125.189 189.922 125.189 241.958C125.189 267.063 135.008 289.873 151.016 306.76V362.738H210.289V335.737C213.29 336.025 216.331 336.178 219.409 336.178H285.502V362.738H344.775V330.913C363.649 324.311 379.781 311.875 391.009 295.764C442.401 294.596 483.702 252.573 483.702 200.901C483.702 148.494 441.219 106.01 388.813 106.01Z" fill="#FF9C9F"/>
<path d="M468.712 231.138H423.701C408.622 231.138 396.396 218.912 396.396 203.832C396.396 188.751 408.622 176.526 423.701 176.526H468.712V231.138Z" fill="#DB8689"/>
<path d="M468.712 176.526C483.792 176.526 496.018 188.751 496.018 203.832C496.018 218.913 483.792 231.138 468.712 231.138H441.398C426.317 231.138 414.091 218.912 414.091 203.832C414.091 188.751 426.317 176.526 441.398 176.526H468.712Z" fill="#FFB6B6"/>
<path d="M436.6 196.229C436.6 192.477 439.643 189.434 443.396 189.434C447.148 189.434 450.191 192.477 450.191 196.229V211.435C450.191 215.188 447.148 218.23 443.396 218.23C439.643 218.23 436.6 215.188 436.6 211.435V196.229Z" fill="#DB8689"/>
<path d="M480.267 196.229C480.267 192.477 477.224 189.434 473.471 189.434C469.718 189.434 466.677 192.477 466.677 196.229V211.435C466.677 215.188 469.718 218.23 473.471 218.23C477.224 218.23 480.267 215.188 480.267 211.435V196.229Z" fill="#DB8689"/>
<path d="M400.256 166.716C404.442 166.716 407.836 163.322 407.836 159.136C407.836 154.95 404.442 151.556 400.256 151.556C396.07 151.556 392.676 154.95 392.676 159.136C392.676 163.322 396.07 166.716 400.256 166.716Z" fill="#333E48"/>
<path d="M458.916 166.715C463.102 166.715 466.495 163.322 466.495 159.136C466.495 154.95 463.102 151.557 458.916 151.557C454.73 151.557 451.337 154.95 451.337 159.136C451.337 163.322 454.73 166.715 458.916 166.715Z" fill="#333E48"/>
<path d="M285.501 362.738V379.824H328.243L334.438 373.629L340.632 379.824H344.774V362.738H285.501Z" fill="#333E48"/>
<path d="M167.775 225.894C174.886 225.894 180.65 220.13 180.65 213.019C180.65 205.908 174.886 200.144 167.775 200.144C160.664 200.144 154.9 205.908 154.9 213.019C154.9 220.13 160.664 225.894 167.775 225.894Z" fill="#DB8689"/>
<path d="M210.287 202.309C217.398 202.309 223.162 196.545 223.162 189.434C223.162 182.323 217.398 176.559 210.287 176.559C203.176 176.559 197.412 182.323 197.412 189.434C197.412 196.545 203.176 202.309 210.287 202.309Z" fill="#DB8689"/>
<path d="M202.525 232.592C206.758 232.592 210.189 229.161 210.189 224.928C210.189 220.695 206.758 217.264 202.525 217.264C198.292 217.264 194.861 220.695 194.861 224.928C194.861 229.161 198.292 232.592 202.525 232.592Z" fill="#DB8689"/>
<path d="M314.735 160.635C303.286 139.177 305.271 101.873 326.622 90.037L353.763 139.001L314.735 160.635Z" fill="#FF9C9F"/>
<path d="M379.527 116.308C367.343 100.036 343.999 85.49 326.623 90.039C313.555 102.365 313.521 129.869 320.864 148.825C320.874 148.84 321.03 149.153 321.107 149.295C322.935 152.594 327.092 153.785 330.389 151.958L377.135 126.047C380.432 124.219 381.623 120.063 379.796 116.763C379.718 116.62 379.535 116.322 379.527 116.308Z" fill="#FFB6B6"/>
</g>
<path d="M778.925 177.88C775.245 177.88 771.965 176.56 769.085 173.92C766.285 171.2 764.085 166.88 762.485 160.96C760.965 155.04 760.205 147.32 760.205 137.8C760.205 131.32 761.245 125.4 763.325 120.04C765.405 114.68 768.285 110.08 771.965 106.24C775.645 102.32 779.925 99.32 784.805 97.24C789.685 95.08 794.885 94 800.405 94C809.685 94 816.645 95.6 821.285 98.8C826.005 101.92 828.365 106.24 828.365 111.76C828.365 115.92 827.365 119 825.365 121C823.445 122.92 820.685 124.2 817.085 124.84C813.565 125.48 809.405 125.8 804.605 125.8C801.885 125.8 799.285 126.2 796.805 127C794.325 127.72 792.285 128.84 790.685 130.36C789.165 131.8 788.285 133.6 788.045 135.76C788.045 136.16 788.005 136.52 787.925 136.84C789.365 136.76 790.805 136.72 792.245 136.72C793.685 136.72 795.125 136.72 796.565 136.72C800.085 136.72 803.525 136.76 806.885 136.84C810.325 136.84 813.445 137.12 816.245 137.68C819.045 138.16 821.285 139.12 822.965 140.56C824.645 142 825.485 144.12 825.485 146.92C825.485 149.96 824.645 152.24 822.965 153.76C821.285 155.2 819.045 156.16 816.245 156.64C813.445 157.12 810.325 157.36 806.885 157.36C803.525 157.28 800.085 157.24 796.565 157.24C795.285 157.24 794.005 157.28 792.725 157.36C791.525 157.36 790.285 157.36 789.005 157.36C789.165 158.48 789.285 159.64 789.365 160.84C789.445 162.04 789.485 163.28 789.485 164.56C789.485 166.8 789.165 168.96 788.525 171.04C787.965 173.04 786.925 174.68 785.405 175.96C783.885 177.24 781.725 177.88 778.925 177.88ZM879.144 178C871.384 178 864.624 176.4 858.864 173.2C853.184 170 849.424 164.96 847.584 158.08C846.784 155.04 846.264 151.36 846.024 147.04C845.864 142.64 845.784 138 845.784 133.12C845.784 128.32 845.984 123.6 846.384 118.96C846.864 114.32 847.744 110.12 849.024 106.36C850.304 102.6 852.224 99.6 854.784 97.36C857.424 95.12 860.904 94 865.224 94C868.584 94 871.384 94.8 873.624 96.4C875.944 98 877.704 100.12 878.904 102.76C880.104 105.4 880.704 108.32 880.704 111.52C880.704 117.52 880.144 123.96 879.024 130.84C877.904 137.72 876.784 144.2 875.664 150.28C878.224 149.48 881.144 148.88 884.424 148.48C887.784 148 891.144 147.84 894.504 148C897.944 148.08 901.104 148.64 903.984 149.68C906.864 150.64 909.184 152.16 910.944 154.24C912.704 156.24 913.584 158.88 913.584 162.16C913.584 166.08 912.584 169.16 910.584 171.4C908.584 173.56 905.904 175.12 902.544 176.08C899.184 176.96 895.464 177.52 891.384 177.76C887.304 177.92 883.224 178 879.144 178ZM947.389 178.24C941.869 178.24 937.509 175.56 934.309 170.2C931.189 164.84 929.349 157.8 928.789 149.08C928.149 138.28 929.309 128.76 932.269 120.52C935.309 112.2 939.869 105.72 945.949 101.08C952.029 96.44 959.269 94.12 967.669 94.12C976.149 94.12 983.389 96.44 989.389 101.08C995.469 105.72 999.989 112.16 1002.95 120.4C1005.99 128.64 1007.15 138.2 1006.43 149.08C1005.87 158.04 1003.99 165.12 1000.79 170.32C997.669 175.52 993.349 178.12 987.829 178.12C984.709 178.12 982.309 177.56 980.629 176.44C978.949 175.24 977.749 173.76 977.029 172C976.389 170.16 976.069 168.32 976.069 166.48C976.069 164.56 976.189 162.92 976.429 161.56C973.869 161.64 970.869 161.72 967.429 161.8C963.989 161.8 961.109 161.72 958.789 161.56C959.029 162.92 959.149 164.56 959.149 166.48C959.149 168.32 958.789 170.16 958.069 172C957.429 173.76 956.269 175.24 954.589 176.44C952.909 177.64 950.509 178.24 947.389 178.24ZM957.949 140.2C964.269 139.96 970.589 139.96 976.909 140.2C977.309 137.4 977.269 134.72 976.789 132.16C976.309 129.6 975.309 127.52 973.789 125.92C972.269 124.32 970.109 123.52 967.309 123.52C964.509 123.52 962.349 124.32 960.829 125.92C959.389 127.52 958.429 129.6 957.949 132.16C957.549 134.64 957.549 137.32 957.949 140.2ZM1053.19 178.12C1049.35 178.12 1045.55 177.72 1041.79 176.92C1038.03 176.04 1034.63 174.84 1031.59 173.32C1028.55 171.8 1026.11 169.96 1024.27 167.8C1022.51 165.64 1021.63 163.2 1021.63 160.48C1021.63 157.12 1022.63 154.52 1024.63 152.68C1026.71 150.76 1029.23 149.8 1032.19 149.8C1034.91 149.8 1037.15 150.24 1038.91 151.12C1040.67 151.92 1042.27 152.76 1043.71 153.64C1045.23 154.44 1046.83 154.84 1048.51 154.84C1051.15 154.84 1052.47 153.8 1052.47 151.72C1052.47 150.68 1051.55 149.76 1049.71 148.96C1047.87 148.16 1045.51 147.24 1042.63 146.2C1039.75 145.08 1036.75 143.6 1033.63 141.76C1028.99 138.96 1025.83 135.96 1024.15 132.76C1022.47 129.48 1021.63 125.52 1021.63 120.88C1021.63 116.16 1023.11 111.76 1026.07 107.68C1029.03 103.6 1033.03 100.32 1038.07 97.84C1043.11 95.36 1048.75 94.12 1054.99 94.12C1060.99 94.12 1066.43 95.04 1071.31 96.88C1076.19 98.72 1080.03 101.2 1082.83 104.32C1085.71 107.36 1087.15 110.84 1087.15 114.76C1087.15 117.96 1086.47 120.52 1085.11 122.44C1083.83 124.36 1082.19 125.76 1080.19 126.64C1078.27 127.52 1076.39 127.96 1074.55 127.96C1071.83 127.96 1069.79 127.8 1068.43 127.48C1067.07 127.16 1065.99 126.84 1065.19 126.52C1064.47 126.12 1063.67 125.76 1062.79 125.44C1061.99 125.12 1060.75 124.96 1059.07 124.96C1058.11 124.96 1057.15 125.28 1056.19 125.92C1055.23 126.56 1054.75 127.52 1054.75 128.8C1054.75 130 1055.59 130.96 1057.27 131.68C1059.03 132.32 1060.87 133 1062.79 133.72C1069.91 136.28 1075.31 139.32 1078.99 142.84C1082.67 146.28 1084.51 150.84 1084.51 156.52C1084.51 163.32 1081.75 168.64 1076.23 172.48C1070.79 176.24 1063.11 178.12 1053.19 178.12ZM1118.73 177.88C1114.09 177.88 1110.57 176.32 1108.17 173.2C1105.77 170 1104.17 165.32 1103.37 159.16C1102.57 153 1102.17 145.36 1102.17 136.24C1102.17 127.12 1102.57 119.44 1103.37 113.2C1104.17 106.96 1105.77 102.28 1108.17 99.16C1110.57 95.96 1114.09 94.36 1118.73 94.36C1122.81 94.36 1125.93 95.64 1128.09 98.2C1130.33 100.68 1131.89 104.32 1132.77 109.12C1133.73 113.92 1134.29 119.68 1134.45 126.4C1135.81 126.4 1137.21 126.4 1138.65 126.4C1140.09 126.4 1141.53 126.4 1142.97 126.4C1144.65 126.4 1146.29 126.4 1147.89 126.4C1149.57 126.4 1151.17 126.44 1152.69 126.52C1152.85 119.72 1153.37 113.92 1154.25 109.12C1155.13 104.32 1156.65 100.64 1158.81 98.08C1161.05 95.52 1164.21 94.24 1168.29 94.24C1172.93 94.24 1176.45 95.84 1178.85 99.04C1181.25 102.24 1182.85 106.96 1183.65 113.2C1184.53 119.44 1184.97 127.12 1184.97 136.24C1184.97 145.36 1184.53 153 1183.65 159.16C1182.85 165.32 1181.25 169.96 1178.85 173.08C1176.45 176.2 1172.93 177.76 1168.29 177.76C1162.53 177.76 1158.61 175.28 1156.53 170.32C1154.45 165.36 1153.21 158.32 1152.81 149.2C1150.97 149.28 1149.01 149.32 1146.93 149.32C1144.85 149.32 1142.73 149.32 1140.57 149.32C1139.53 149.32 1138.49 149.32 1137.45 149.32C1136.41 149.32 1135.37 149.32 1134.33 149.32C1133.93 158.36 1132.65 165.4 1130.49 170.44C1128.41 175.4 1124.49 177.88 1118.73 177.88Z" fill="white"/>
<path d="M893.751 283.12C889.911 283.12 886.111 282.72 882.351 281.92C878.591 281.04 875.191 279.84 872.151 278.32C869.111 276.8 866.671 274.96 864.831 272.8C863.071 270.64 862.191 268.2 862.191 265.48C862.191 262.12 863.191 259.52 865.191 257.68C867.271 255.76 869.791 254.8 872.751 254.8C875.471 254.8 877.711 255.24 879.471 256.12C881.231 256.92 882.831 257.76 884.271 258.64C885.791 259.44 887.391 259.84 889.071 259.84C891.711 259.84 893.031 258.8 893.031 256.72C893.031 255.68 892.111 254.76 890.271 253.96C888.431 253.16 886.071 252.24 883.191 251.2C880.311 250.08 877.311 248.6 874.191 246.76C869.551 243.96 866.391 240.96 864.711 237.76C863.031 234.48 862.191 230.52 862.191 225.88C862.191 221.16 863.671 216.76 866.631 212.68C869.591 208.6 873.591 205.32 878.631 202.84C883.671 200.36 889.311 199.12 895.551 199.12C901.551 199.12 906.991 200.04 911.871 201.88C916.751 203.72 920.591 206.2 923.391 209.32C926.271 212.36 927.711 215.84 927.711 219.76C927.711 222.96 927.031 225.52 925.671 227.44C924.391 229.36 922.751 230.76 920.751 231.64C918.831 232.52 916.951 232.96 915.111 232.96C912.391 232.96 910.351 232.8 908.991 232.48C907.631 232.16 906.551 231.84 905.751 231.52C905.031 231.12 904.231 230.76 903.351 230.44C902.551 230.12 901.311 229.96 899.631 229.96C898.671 229.96 897.711 230.28 896.751 230.92C895.791 231.56 895.311 232.52 895.311 233.8C895.311 235 896.151 235.96 897.831 236.68C899.591 237.32 901.431 238 903.351 238.72C910.471 241.28 915.871 244.32 919.551 247.84C923.231 251.28 925.071 255.84 925.071 261.52C925.071 268.32 922.311 273.64 916.791 277.48C911.351 281.24 903.671 283.12 893.751 283.12ZM960.162 283.24C954.642 283.24 950.282 280.56 947.082 275.2C943.962 269.84 942.122 262.8 941.562 254.08C940.922 243.28 942.082 233.76 945.042 225.52C948.082 217.2 952.642 210.72 958.722 206.08C964.802 201.44 972.042 199.12 980.442 199.12C988.922 199.12 996.162 201.44 1002.16 206.08C1008.24 210.72 1012.76 217.16 1015.72 225.4C1018.76 233.64 1019.92 243.2 1019.2 254.08C1018.64 263.04 1016.76 270.12 1013.56 275.32C1010.44 280.52 1006.12 283.12 1000.6 283.12C997.482 283.12 995.082 282.56 993.402 281.44C991.722 280.24 990.522 278.76 989.802 277C989.162 275.16 988.842 273.32 988.842 271.48C988.842 269.56 988.962 267.92 989.202 266.56C986.642 266.64 983.642 266.72 980.202 266.8C976.762 266.8 973.882 266.72 971.562 266.56C971.802 267.92 971.922 269.56 971.922 271.48C971.922 273.32 971.562 275.16 970.842 277C970.202 278.76 969.042 280.24 967.362 281.44C965.682 282.64 963.282 283.24 960.162 283.24ZM970.722 245.2C977.042 244.96 983.362 244.96 989.682 245.2C990.082 242.4 990.042 239.72 989.562 237.16C989.082 234.6 988.082 232.52 986.562 230.92C985.042 229.32 982.882 228.52 980.082 228.52C977.282 228.52 975.122 229.32 973.602 230.92C972.162 232.52 971.202 234.6 970.722 237.16C970.322 239.64 970.322 242.32 970.722 245.2ZM1070.11 283C1062.35 283 1055.59 281.4 1049.83 278.2C1044.15 275 1040.39 269.96 1038.55 263.08C1037.75 260.04 1037.23 256.36 1036.99 252.04C1036.83 247.64 1036.75 243 1036.75 238.12C1036.75 233.32 1036.95 228.6 1037.35 223.96C1037.83 219.32 1038.71 215.12 1039.99 211.36C1041.27 207.6 1043.19 204.6 1045.75 202.36C1048.39 200.12 1051.87 199 1056.19 199C1059.55 199 1062.35 199.8 1064.59 201.4C1066.91 203 1068.67 205.12 1069.87 207.76C1071.07 210.4 1071.67 213.32 1071.67 216.52C1071.67 222.52 1071.11 228.96 1069.99 235.84C1068.87 242.72 1067.75 249.2 1066.63 255.28C1069.19 254.48 1072.11 253.88 1075.39 253.48C1078.75 253 1082.11 252.84 1085.47 253C1088.91 253.08 1092.07 253.64 1094.95 254.68C1097.83 255.64 1100.15 257.16 1101.91 259.24C1103.67 261.24 1104.55 263.88 1104.55 267.16C1104.55 271.08 1103.55 274.16 1101.55 276.4C1099.55 278.56 1096.87 280.12 1093.51 281.08C1090.15 281.96 1086.43 282.52 1082.35 282.76C1078.27 282.92 1074.19 283 1070.11 283ZM1159.38 283C1156.1 283 1152.58 282.76 1148.82 282.28C1145.14 281.8 1141.5 280.8 1137.9 279.28C1134.3 277.76 1131.02 275.52 1128.06 272.56C1125.1 269.6 1122.74 265.68 1120.98 260.8C1119.22 255.84 1118.34 249.72 1118.34 242.44C1118.34 234.44 1119.7 227.16 1122.42 220.6C1125.14 214.04 1129.26 208.8 1134.78 204.88C1140.3 200.96 1147.22 199 1155.54 199C1161.54 199 1166.42 199.52 1170.18 200.56C1174.02 201.6 1177.02 202.96 1179.18 204.64C1181.34 206.32 1182.82 208.16 1183.62 210.16C1184.5 212.16 1184.94 214.16 1184.94 216.16C1184.94 218.24 1184.38 220.24 1183.26 222.16C1182.22 224.08 1180.54 225.6 1178.22 226.72C1175.98 227.76 1173.66 228.24 1171.26 228.16C1168.86 228 1166.7 227.92 1164.78 227.92C1160.62 227.92 1157.34 228.68 1154.94 230.2C1152.62 231.64 1150.98 233.88 1150.02 236.92C1151.3 236.84 1152.7 236.8 1154.22 236.8C1155.82 236.72 1157.46 236.68 1159.14 236.68C1162.42 236.68 1165.54 236.76 1168.5 236.92C1171.54 237 1173.66 237.16 1174.86 237.4C1177.66 237.96 1179.78 239.08 1181.22 240.76C1182.66 242.36 1183.38 244.2 1183.38 246.28C1183.38 248.28 1182.7 250.08 1181.34 251.68C1179.98 253.28 1177.78 254.4 1174.74 255.04C1173.62 255.28 1171.46 255.48 1168.26 255.64C1165.14 255.72 1161.86 255.76 1158.42 255.76C1157.06 255.76 1155.74 255.76 1154.46 255.76C1153.18 255.68 1152.02 255.64 1150.98 255.64C1152.1 258.12 1153.78 260.08 1156.02 261.52C1158.34 262.88 1161.3 263.56 1164.9 263.56C1166.26 263.56 1168.22 263.44 1170.78 263.2C1173.34 262.88 1175.82 263.08 1178.22 263.8C1182.06 265 1183.98 267.52 1183.98 271.36C1183.98 273.44 1183.26 275.4 1181.82 277.24C1180.46 279 1177.98 280.4 1174.38 281.44C1170.86 282.48 1165.86 283 1159.38 283Z" fill="white"/>
<rect x="861" y="342" width="314" height="68" rx="34" fill="#689459"/>
<path d="M919.077 388.48C916.703 388.48 914.543 387.973 912.597 386.96C910.677 385.947 909.143 384.453 907.997 382.48C906.877 380.48 906.317 378.027 906.317 375.12C906.317 372.24 906.89 369.787 908.037 367.76C909.21 365.707 910.757 364.147 912.677 363.08C914.597 361.987 916.717 361.44 919.037 361.44C920.93 361.44 922.557 361.787 923.917 362.48C925.277 363.173 926.383 363.96 927.237 364.84L924.157 368.6C923.49 368.013 922.783 367.52 922.037 367.12C921.29 366.72 920.357 366.52 919.237 366.52C917.21 366.52 915.557 367.267 914.277 368.76C912.997 370.253 912.357 372.307 912.357 374.92C912.357 377.587 912.97 379.667 914.197 381.16C915.423 382.653 917.25 383.4 919.677 383.4C920.21 383.4 920.73 383.333 921.237 383.2C921.743 383.067 922.157 382.867 922.477 382.6V378.12H918.157V373.32H927.677V385.32C926.77 386.2 925.557 386.947 924.037 387.56C922.543 388.173 920.89 388.48 919.077 388.48ZM932.264 388V361.92H948.584V366.88H938.144V372.12H947.024V377.04H938.144V383.04H948.984V388H932.264ZM958.458 388V366.88H951.298V361.92H971.538V366.88H964.378V388H958.458ZM980.413 388V384.64C982.573 382.587 984.479 380.733 986.133 379.08C987.813 377.4 989.119 375.867 990.053 374.48C990.986 373.067 991.453 371.76 991.453 370.56C991.453 369.307 991.119 368.36 990.453 367.72C989.813 367.053 988.946 366.72 987.853 366.72C986.946 366.72 986.119 366.987 985.373 367.52C984.653 368.027 983.973 368.627 983.333 369.32L980.133 366.16C981.386 364.827 982.666 363.827 983.973 363.16C985.279 362.467 986.839 362.12 988.653 362.12C990.333 362.12 991.799 362.453 993.053 363.12C994.306 363.787 995.279 364.733 995.973 365.96C996.693 367.16 997.053 368.573 997.053 370.2C997.053 371.613 996.653 373.067 995.853 374.56C995.079 376.027 994.079 377.507 992.853 379C991.626 380.467 990.319 381.92 988.933 383.36C989.573 383.28 990.293 383.213 991.093 383.16C991.893 383.08 992.586 383.04 993.173 383.04H998.293V388H980.413ZM1009.83 388.48C1007.11 388.48 1004.91 387.347 1003.23 385.08C1001.57 382.813 1000.75 379.52 1000.75 375.2C1000.75 370.88 1001.57 367.627 1003.23 365.44C1004.91 363.227 1007.11 362.12 1009.83 362.12C1012.55 362.12 1014.73 363.227 1016.39 365.44C1018.07 367.627 1018.91 370.88 1018.91 375.2C1018.91 379.52 1018.07 382.813 1016.39 385.08C1014.73 387.347 1012.55 388.48 1009.83 388.48ZM1009.83 383.92C1010.49 383.92 1011.09 383.68 1011.63 383.2C1012.16 382.693 1012.57 381.813 1012.87 380.56C1013.19 379.307 1013.35 377.52 1013.35 375.2C1013.35 372.88 1013.19 371.107 1012.87 369.88C1012.57 368.653 1012.16 367.813 1011.63 367.36C1011.09 366.907 1010.49 366.68 1009.83 366.68C1009.19 366.68 1008.6 366.907 1008.07 367.36C1007.53 367.813 1007.11 368.653 1006.79 369.88C1006.47 371.107 1006.31 372.88 1006.31 375.2C1006.31 377.52 1006.47 379.307 1006.79 380.56C1007.11 381.813 1007.53 382.693 1008.07 383.2C1008.6 383.68 1009.19 383.92 1009.83 383.92ZM1027.12 378C1025.25 378 1023.71 377.267 1022.48 375.8C1021.25 374.333 1020.64 372.293 1020.64 369.68C1020.64 367.067 1021.25 365.04 1022.48 363.6C1023.71 362.16 1025.25 361.44 1027.12 361.44C1029.01 361.44 1030.57 362.16 1031.8 363.6C1033.03 365.04 1033.64 367.067 1033.64 369.68C1033.64 372.293 1033.03 374.333 1031.8 375.8C1030.57 377.267 1029.01 378 1027.12 378ZM1027.12 374.72C1027.79 374.72 1028.35 374.347 1028.8 373.6C1029.28 372.853 1029.52 371.547 1029.52 369.68C1029.52 367.813 1029.28 366.52 1028.8 365.8C1028.35 365.08 1027.79 364.72 1027.12 364.72C1026.45 364.72 1025.88 365.08 1025.4 365.8C1024.95 366.52 1024.72 367.813 1024.72 369.68C1024.72 371.547 1024.95 372.853 1025.4 373.6C1025.88 374.347 1026.45 374.72 1027.12 374.72ZM1028 388.48L1042.08 361.44H1045.48L1031.4 388.48H1028ZM1046.36 388.48C1044.49 388.48 1042.95 387.747 1041.72 386.28C1040.49 384.813 1039.88 382.773 1039.88 380.16C1039.88 377.547 1040.49 375.52 1041.72 374.08C1042.95 372.64 1044.49 371.92 1046.36 371.92C1048.25 371.92 1049.81 372.64 1051.04 374.08C1052.27 375.52 1052.88 377.547 1052.88 380.16C1052.88 382.773 1052.27 384.813 1051.04 386.28C1049.81 387.747 1048.25 388.48 1046.36 388.48ZM1046.36 385.2C1047.03 385.2 1047.59 384.827 1048.04 384.08C1048.52 383.333 1048.76 382.027 1048.76 380.16C1048.76 378.293 1048.52 377 1048.04 376.28C1047.59 375.56 1047.03 375.2 1046.36 375.2C1045.69 375.2 1045.12 375.56 1044.64 376.28C1044.19 377 1043.96 378.293 1043.96 380.16C1043.96 382.027 1044.19 383.333 1044.64 384.08C1045.12 384.827 1045.69 385.2 1046.36 385.2ZM1073.98 388.48C1071.64 388.48 1069.57 387.933 1067.78 386.84C1066.02 385.747 1064.64 384.187 1063.62 382.16C1062.64 380.107 1062.14 377.667 1062.14 374.84C1062.14 371.987 1062.64 369.573 1063.62 367.6C1064.64 365.6 1066.02 364.08 1067.78 363.04C1069.57 361.973 1071.64 361.44 1073.98 361.44C1076.33 361.44 1078.38 361.973 1080.14 363.04C1081.93 364.08 1083.32 365.6 1084.3 367.6C1085.32 369.6 1085.82 372.013 1085.82 374.84C1085.82 377.667 1085.32 380.107 1084.3 382.16C1083.32 384.187 1081.93 385.747 1080.14 386.84C1078.38 387.933 1076.33 388.48 1073.98 388.48ZM1073.98 383.4C1075.77 383.4 1077.18 382.627 1078.22 381.08C1079.26 379.533 1079.78 377.453 1079.78 374.84C1079.78 372.227 1079.26 370.187 1078.22 368.72C1077.18 367.253 1075.77 366.52 1073.98 366.52C1072.2 366.52 1070.78 367.253 1069.74 368.72C1068.7 370.187 1068.18 372.227 1068.18 374.84C1068.18 377.453 1068.7 379.533 1069.74 381.08C1070.78 382.627 1072.2 383.4 1073.98 383.4ZM1089.93 388V361.92H1106.37V366.88H1095.81V372.92H1104.85V377.88H1095.81V388H1089.93ZM1110.1 388V361.92H1126.54V366.88H1115.98V372.92H1125.02V377.88H1115.98V388H1110.1Z" fill="black"/>
<path d="M896.08 63V36.92H901.96V46.96H910.96V36.92H916.88V63H910.96V52.12H901.96V63H896.08ZM922.233 63V36.92H938.553V41.88H928.113V47.12H936.993V52.04H928.113V58.04H938.953V63H922.233ZM943.347 63V36.92H949.387L956.187 49.88L958.747 55.64H958.907C958.801 54.2533 958.654 52.7067 958.467 51C958.281 49.2933 958.187 47.6667 958.187 46.12V36.92H963.787V63H957.747L950.947 50L948.387 44.32H948.227C948.361 45.76 948.507 47.3067 948.667 48.96C948.854 50.6133 948.947 52.2133 948.947 53.76V63H943.347ZM969.149 63V36.92H978.549C980.389 36.92 982.069 37.1733 983.589 37.68C985.109 38.16 986.322 38.9867 987.229 40.16C988.135 41.3333 988.589 42.96 988.589 45.04C988.589 46.96 988.162 48.5467 987.309 49.8C986.482 51.0267 985.362 51.9467 983.949 52.56L989.869 63H983.269L978.269 53.6H975.029V63H969.149ZM975.029 48.92H978.069C979.615 48.92 980.789 48.6 981.589 47.96C982.415 47.2933 982.829 46.32 982.829 45.04C982.829 43.76 982.415 42.8667 981.589 42.36C980.789 41.8533 979.615 41.6 978.069 41.6H975.029V48.92ZM996.774 63V53.72L988.894 36.92H995.214L997.534 42.92C997.907 43.9067 998.267 44.8667 998.614 45.8C998.961 46.7067 999.307 47.6667 999.654 48.68H999.814C1000.19 47.6667 1000.56 46.7067 1000.93 45.8C1001.31 44.8667 1001.67 43.9067 1002.01 42.92L1004.37 36.92H1010.53L1002.65 53.72V63H996.774ZM1027.68 63.48C1025.97 63.48 1024.26 63.16 1022.56 62.52C1020.88 61.88 1019.37 60.9467 1018.04 59.72L1021.4 55.68C1022.33 56.48 1023.37 57.1333 1024.52 57.64C1025.66 58.1467 1026.77 58.4 1027.84 58.4C1029.06 58.4 1029.97 58.1733 1030.56 57.72C1031.17 57.2667 1031.48 56.6533 1031.48 55.88C1031.48 55.0533 1031.13 54.4533 1030.44 54.08C1029.77 53.68 1028.86 53.24 1027.72 52.76L1024.32 51.32C1023.44 50.9467 1022.6 50.4533 1021.8 49.84C1021 49.2 1020.34 48.4133 1019.84 47.48C1019.33 46.5467 1019.08 45.4533 1019.08 44.2C1019.08 42.76 1019.46 41.4533 1020.24 40.28C1021.04 39.1067 1022.13 38.1733 1023.52 37.48C1024.93 36.7867 1026.54 36.44 1028.36 36.44C1029.85 36.44 1031.34 36.7333 1032.84 37.32C1034.33 37.9067 1035.64 38.76 1036.76 39.88L1033.76 43.6C1032.9 42.9333 1032.05 42.4267 1031.2 42.08C1030.34 41.7067 1029.4 41.52 1028.36 41.52C1027.34 41.52 1026.53 41.7333 1025.92 42.16C1025.33 42.56 1025.04 43.1333 1025.04 43.88C1025.04 44.68 1025.41 45.28 1026.16 45.68C1026.93 46.08 1027.88 46.5067 1029 46.96L1032.36 48.32C1033.93 48.96 1035.18 49.84 1036.12 50.96C1037.05 52.08 1037.52 53.56 1037.52 55.4C1037.52 56.84 1037.13 58.1733 1036.36 59.4C1035.58 60.6267 1034.46 61.6133 1033 62.36C1031.53 63.1067 1029.76 63.48 1027.68 63.48ZM1041.14 63V36.92H1047.02V46.96H1056.02V36.92H1061.94V63H1056.02V52.12H1047.02V63H1041.14ZM1077.9 63.48C1075.55 63.48 1073.48 62.9333 1071.7 61.84C1069.94 60.7467 1068.55 59.1867 1067.54 57.16C1066.55 55.1067 1066.06 52.6667 1066.06 49.84C1066.06 46.9867 1066.55 44.5733 1067.54 42.6C1068.55 40.6 1069.94 39.08 1071.7 38.04C1073.48 36.9733 1075.55 36.44 1077.9 36.44C1080.24 36.44 1082.3 36.9733 1084.06 38.04C1085.84 39.08 1087.23 40.6 1088.22 42.6C1089.23 44.6 1089.74 47.0133 1089.74 49.84C1089.74 52.6667 1089.23 55.1067 1088.22 57.16C1087.23 59.1867 1085.84 60.7467 1084.06 61.84C1082.3 62.9333 1080.24 63.48 1077.9 63.48ZM1077.9 58.4C1079.68 58.4 1081.1 57.6267 1082.14 56.08C1083.18 54.5333 1083.7 52.4533 1083.7 49.84C1083.7 47.2267 1083.18 45.1867 1082.14 43.72C1081.1 42.2533 1079.68 41.52 1077.9 41.52C1076.11 41.52 1074.7 42.2533 1073.66 43.72C1072.62 45.1867 1072.1 47.2267 1072.1 49.84C1072.1 52.4533 1072.62 54.5333 1073.66 56.08C1074.7 57.6267 1076.11 58.4 1077.9 58.4ZM1093.84 63V36.92H1102.8C1104.72 36.92 1106.45 37.1867 1108 37.72C1109.57 38.2267 1110.83 39.0933 1111.76 40.32C1112.69 41.5467 1113.16 43.2133 1113.16 45.32C1113.16 47.3467 1112.69 49.0133 1111.76 50.32C1110.83 51.6267 1109.59 52.6 1108.04 53.24C1106.49 53.8533 1104.8 54.16 1102.96 54.16H1099.72V63H1093.84ZM1099.72 49.48H1102.6C1105.8 49.48 1107.4 48.0933 1107.4 45.32C1107.4 43.96 1106.97 43 1106.12 42.44C1105.27 41.88 1104.04 41.6 1102.44 41.6H1099.72V49.48ZM1124.08 63V36.92H1131.44C1134.1 36.92 1136.41 37.3733 1138.36 38.28C1140.3 39.1867 1141.81 40.6 1142.88 42.52C1143.97 44.4133 1144.52 46.8533 1144.52 49.84C1144.52 52.8267 1143.98 55.2933 1142.92 57.24C1141.85 59.1867 1140.36 60.64 1138.44 61.6C1136.54 62.5333 1134.32 63 1131.76 63H1124.08ZM1129.96 58.24H1131.08C1132.57 58.24 1133.86 57.9733 1134.96 57.44C1136.08 56.9067 1136.94 56.0267 1137.56 54.8C1138.17 53.5733 1138.48 51.92 1138.48 49.84C1138.48 47.76 1138.17 46.1333 1137.56 44.96C1136.94 43.76 1136.08 42.92 1134.96 42.44C1133.86 41.9333 1132.57 41.68 1131.08 41.68H1129.96V58.24ZM1154.4 49.8L1153.76 52.2H1159.32L1158.72 49.8C1158.37 48.4933 1158.01 47.1067 1157.64 45.64C1157.29 44.1733 1156.94 42.76 1156.6 41.4H1156.44C1156.12 42.7867 1155.78 44.2133 1155.44 45.68C1155.12 47.12 1154.77 48.4933 1154.4 49.8ZM1144.96 63L1153.12 36.92H1160.2L1168.36 63H1162.12L1160.52 56.8H1152.56L1150.96 63H1144.96ZM1174.18 63V53.72L1166.3 36.92H1172.62L1174.94 42.92C1175.32 43.9067 1175.68 44.8667 1176.02 45.8C1176.37 46.7067 1176.72 47.6667 1177.06 48.68H1177.22C1177.6 47.6667 1177.97 46.7067 1178.34 45.8C1178.72 44.8667 1179.08 43.9067 1179.42 42.92L1181.78 36.92H1187.94L1180.06 53.72V63H1174.18Z" fill="white"/>
<defs>
<clipPath id="clip0_5_69">
<rect width="407.018" height="407.018" fill="white" transform="translate(89 31)"/>
</clipPath>
</defs>
</svg>
