<svg width="2531" height="975" viewBox="0 0 2531 975" fill="none" xmlns="http://www.w3.org/2000/svg">
<rect width="2531" height="975" fill="#E5E5E5"/>
<rect width="2531" height="975" fill="#E48C4B"/>
<ellipse cx="452.5" cy="348.12" rx="293.5" ry="292.12" fill="#C71A1A"/>
<ellipse cx="452.5" cy="348.12" rx="241.089" ry="239.956" fill="#E48C4B"/>
<ellipse rx="130.806" ry="50.9936" transform="matrix(-0.999998 -0.00211859 0.00203544 -0.999998 474.764 509.844)" fill="#E3BE3A"/>
<path d="M605.575 507.716C605.564 513.239 601.077 517.706 595.554 517.695L353.943 517.183C348.42 517.171 343.952 512.684 343.963 507.161L344.062 458.573L605.674 459.127L605.575 507.716Z" fill="#E3BE3A"/>
<ellipse rx="48.9193" ry="52.0785" transform="matrix(-0.999998 -0.00211859 0.00203544 -0.999998 578.912 370.826)" fill="#E3BE3A"/>
<ellipse rx="48.9193" ry="52.0785" transform="matrix(-0.999998 -0.00211859 0.00203544 -0.999998 525.154 309.954)" fill="#E48C4B"/>
<ellipse cx="418.652" cy="193.479" rx="130.806" ry="50.9936" fill="#3A69E3"/>
<path d="M287.846 195.885C287.846 190.362 292.323 185.885 297.846 185.885H539.458C544.98 185.885 549.458 190.362 549.458 195.885V244.473H287.846V195.885Z" fill="#3A69E3"/>
<rect x="443.111" y="214.817" width="106.346" height="72.3313" fill="#3A69E3"/>
<path d="M255.388 273.262C256.113 268.358 260.322 264.726 265.28 264.726H549.458V291.397C549.458 319.011 527.072 341.397 499.458 341.397H245.307L255.388 273.262Z" fill="#3A69E3"/>
<ellipse cx="314.787" cy="332.717" rx="48.9193" ry="52.0785" fill="#3A69E3"/>
<ellipse cx="266.576" cy="362.735" rx="40.4116" ry="98.0089" fill="#3A69E3"/>
<ellipse cx="368.669" cy="393.476" rx="48.9193" ry="52.0785" fill="#E48C4B"/>
<path d="M258.777 341.397H320.458V460.744H268.777C263.255 460.744 258.777 456.266 258.777 450.744V341.397Z" fill="#3A69E3"/>
<rect width="106.346" height="72.3313" transform="matrix(-0.999998 -0.00211859 0.00203544 -0.999998 450.348 488.454)" fill="#E3BE3A"/>
<path d="M638.19 430.407C637.455 435.31 633.238 438.933 628.28 438.923L344.103 438.321L344.158 411.649C344.214 384.035 366.645 361.697 394.259 361.755L648.409 362.294L638.19 430.407Z" fill="#E3BE3A"/>
<ellipse rx="40.4116" ry="98.0089" transform="matrix(-0.999998 -0.00211859 0.00203544 -0.999998 627.184 340.911)" fill="#E3BE3A"/>
<path d="M634.939 362.265L573.258 362.135L573.501 242.788L625.182 242.898C630.705 242.909 635.173 247.396 635.162 252.919L634.939 362.265Z" fill="#E3BE3A"/>
<ellipse cx="543.805" cy="501.77" rx="24.0969" ry="24.3817" fill="#E48C4B"/>
<ellipse cx="338.763" cy="199.07" rx="24.0969" ry="24.3817" fill="#E48C4B"/>
<rect x="197.643" y="469.844" width="552.939" height="46.0031" transform="rotate(-32.2622 197.643 469.844)" fill="#C71A1A"/>
<path d="M797.315 645.418L530 793.822L530 497.014L797.315 645.418Z" fill="#8348B1"/>
<path d="M797.315 645.418L530 793.822L530 497.014L797.315 645.418Z" fill="#8348B1"/>
<path d="M797.315 645.418L530 793.822L530 497.014L797.315 645.418Z" fill="#8348B1"/>
<path d="M797.315 646.888L530 498.484L797.315 350.08L797.315 646.888Z" fill="#8348B1"/>
<path d="M797.315 646.888L530 498.484L797.315 350.08L797.315 646.888Z" fill="#8348B1"/>
<path d="M797.315 646.888L530 498.484L797.315 350.08L797.315 646.888Z" fill="#8348B1"/>
<path d="M797.209 647.706L797.209 350.898L1064.52 499.302L797.209 647.706Z" fill="#8348B1"/>
<path d="M797.209 647.706L797.209 350.898L1064.52 499.302L797.209 647.706Z" fill="#8348B1"/>
<path d="M797.209 647.706L797.209 350.898L1064.52 499.302L797.209 647.706Z" fill="#8348B1"/>
<path d="M797.953 647.352L1065.27 498.948L1065.27 795.756L797.953 647.352Z" fill="#8348B1"/>
<path d="M797.953 647.352L1065.27 498.948L1065.27 795.756L797.953 647.352Z" fill="#8348B1"/>
<path d="M797.953 647.352L1065.27 498.948L1065.27 795.756L797.953 647.352Z" fill="#604598"/>
<path d="M530.851 793.767L798.166 645.363L798.166 942.171L530.851 793.767Z" fill="#8348B1"/>
<path d="M530.851 793.767L798.166 645.363L798.166 942.171L530.851 793.767Z" fill="#8348B1"/>
<path d="M530.851 793.767L798.166 645.363L798.166 942.171L530.851 793.767Z" fill="#543977"/>
<path d="M798.06 646.767L1065.37 795.171L798.06 943.575L798.06 646.767Z" fill="#8348B1"/>
<path d="M798.06 646.767L1065.37 795.171L798.06 943.575L798.06 646.767Z" fill="#8348B1"/>
<path d="M798.06 646.767L1065.37 795.171L798.06 943.575L798.06 646.767Z" fill="#543977"/>
<path d="M971.543 744.237C949.156 779.388 915.408 806.515 875.462 821.468C835.517 836.42 791.576 838.374 750.367 827.029C709.157 815.685 672.949 791.667 647.285 758.653C621.621 725.638 607.915 685.447 608.266 644.23C608.616 603.013 623.004 563.043 649.226 530.436C675.448 497.83 712.06 474.385 753.457 463.69C794.854 452.995 838.755 455.639 878.441 471.218C918.126 486.797 951.41 514.451 973.195 549.949L896.019 593.744C884.19 574.47 866.119 559.454 844.571 550.996C823.023 542.537 799.186 541.101 776.709 546.908C754.232 552.715 734.353 565.445 720.116 583.149C705.878 600.853 698.066 622.556 697.876 644.935C697.686 667.314 705.127 689.136 719.062 707.062C732.997 724.987 752.656 738.028 775.031 744.188C797.407 750.347 821.265 749.287 842.954 741.168C864.642 733.049 882.967 718.32 895.122 699.235L971.543 744.237Z" fill="#EBEBEB"/>
<path d="M935.076 711.39L939.036 677.73H925.716V660.81H941.016L943.536 641.01H929.316V624.09H945.696L949.476 594.39H964.596L960.996 624.09H979.716L983.496 594.39H998.616L995.016 624.09H1009.24V641.01H992.856L990.516 660.81H1005.64V677.73H988.536L984.396 711.39H969.096L973.056 677.73H954.516L950.376 711.39H935.076ZM956.496 660.81H975.036L977.556 641.01H958.836L956.496 660.81Z" fill="white"/>
<rect x="763.077" y="931.648" width="83.3633" height="43.3518" fill="#E48C4B"/>
<ellipse cx="799.655" cy="906.292" rx="33.1752" ry="31.9004" fill="#543977"/>
<rect x="750.317" y="310" width="89.3178" height="53.1673" fill="#E48C4B"/>
<ellipse cx="796.252" cy="386.888" rx="33.1752" ry="31.9004" fill="#8348B1"/>
<path d="M893.8 211C892.733 203.8 891.667 196.267 890.6 188.4C889.533 180.533 888.4 172.6 887.2 164.6C886 156.6 884.667 148.667 883.2 140.8C882.267 135.2 881.333 129.733 880.4 124.4C879.6 118.933 878.8 113.733 878 108.8C877.2 103.867 876.4 99.1333 875.6 94.6C874.933 90.0667 874.267 85.8667 873.6 82L860.4 70.2L891.6 69C892.4 74.2 893.267 79.6 894.2 85.2C895.133 90.6667 896.067 96.3333 897 102.2C898.067 107.933 899.133 113.8 900.2 119.8C901.4 125.8 902.6 131.733 903.8 137.6C905.4 146.533 907.067 155.333 908.8 164C910.533 172.533 912.267 180.733 914 188.6C915.733 196.333 917.333 203.467 918.8 210L893.8 211ZM853 183.4V163.8L897 164.6V182L853 183.4ZM856.6 208.8L833 208.6C834.467 202.333 835.933 195.467 837.4 188C839 180.533 840.6 172.667 842.2 164.4C843.933 156 845.667 147.467 847.4 138.8C849 130.8 850.533 122.867 852 115C853.6 107.133 855.067 99.4 856.4 91.8C857.733 84.2 859.067 77 860.4 70.2L891.6 69L877.2 83.6C876.267 88.4 875.267 93.8 874.2 99.8C873.133 105.8 872.067 112.2 871 119C869.933 125.667 868.8 132.667 867.6 140C866.267 147.733 864.933 155.6 863.6 163.6C862.4 171.467 861.2 179.2 860 186.8C858.933 194.4 857.8 201.733 856.6 208.8ZM931.905 209.8C931.905 209.8 931.905 207.867 931.905 204C932.038 200 932.171 194.733 932.305 188.2C932.438 181.533 932.505 174.067 932.505 165.8C932.638 157.533 932.705 149.2 932.705 140.8C932.705 132.267 932.638 123.733 932.505 115.2C932.371 106.667 932.171 98.8667 931.905 91.8C931.771 84.7333 931.638 79.0667 931.505 74.8C931.505 70.5333 931.505 68.4 931.505 68.4L956.305 71C956.305 71 956.238 72.6667 956.105 76C956.105 79.2 956.105 83.4667 956.105 88.8C956.105 94.1333 956.038 100 955.905 106.4C955.905 112.667 955.838 118.867 955.705 125C955.705 131 955.705 136.333 955.705 141C955.705 145.8 955.705 151.267 955.705 157.4C955.838 163.4 955.905 169.467 955.905 175.6C955.905 181.733 955.905 187.4 955.905 192.6C956.038 197.667 956.105 201.8 956.105 205C956.238 208.067 956.305 209.6 956.305 209.6L931.905 209.8ZM942.705 160.8V141L991.705 141.6L992.105 159.8L942.705 160.8ZM941.505 88L931.505 68.4L991.705 70L991.105 87.8L941.505 88ZM1023.33 171.2L1022.93 152.6C1028.79 153 1033.86 152.533 1038.13 151.2C1042.53 149.867 1046.19 147.733 1049.13 144.8C1052.06 141.867 1054.26 138.133 1055.73 133.6C1057.33 129.067 1058.13 123.867 1058.13 118C1058.13 109.867 1057.39 103.4 1055.93 98.6C1054.59 93.8 1052.33 90.3333 1049.13 88.2C1046.06 85.9333 1041.86 84.8 1036.53 84.8C1033.99 84.8 1030.99 84.9333 1027.53 85.2C1024.06 85.4667 1020.53 85.8667 1016.93 86.4L1007.73 67.8C1010.53 67.5333 1013.33 67.3333 1016.13 67.2C1018.93 67.0667 1021.66 67 1024.33 67C1026.99 66.8667 1029.46 66.8 1031.73 66.8C1042.93 66.8 1052.13 68.2667 1059.33 71.2C1066.53 74 1071.93 79.0667 1075.53 86.4C1079.13 93.7333 1080.93 104.067 1080.93 117.4C1080.93 126.733 1079.53 134.8 1076.73 141.6C1074.06 148.4 1070.19 154 1065.13 158.4C1060.06 162.667 1053.99 165.867 1046.93 168C1039.86 170.133 1031.99 171.2 1023.33 171.2ZM1008.13 211C1008.26 205.667 1008.39 199 1008.53 191C1008.66 182.867 1008.73 174.267 1008.73 165.2C1008.86 156.133 1008.93 147.467 1008.93 139.2C1008.93 130.8 1008.86 122.133 1008.73 113.2C1008.59 104.267 1008.46 95.8 1008.33 87.8C1008.19 79.6667 1007.99 73 1007.73 67.8L1031.93 69.6C1031.79 73.0667 1031.66 77 1031.53 81.4C1031.53 85.8 1031.46 90.4667 1031.33 95.4C1031.19 100.333 1031.13 105.333 1031.13 110.4C1031.26 115.467 1031.26 120.467 1031.13 125.4C1031.13 130.2 1031.19 134.667 1031.33 138.8C1031.33 142.933 1031.33 148 1031.33 154C1031.46 159.867 1031.53 166.133 1031.53 172.8C1031.66 179.333 1031.73 185.8 1031.73 192.2C1031.86 198.6 1031.93 204.4 1031.93 209.6L1008.13 211ZM1063.93 211.2C1061.66 205.067 1059.19 199 1056.53 193C1053.99 186.867 1051.33 180.733 1048.53 174.6C1045.73 168.333 1042.73 161.933 1039.53 155.4L1061.13 149.4C1064.06 155.933 1067.06 162.533 1070.13 169.2C1073.19 175.867 1076.46 182.667 1079.93 189.6C1083.39 196.4 1087.19 203.4 1091.33 210.6L1063.93 211.2ZM1089.85 211.4C1091.18 205.133 1092.65 198.067 1094.25 190.2C1095.85 182.2 1097.45 173.8 1099.05 165C1100.78 156.2 1102.52 147.467 1104.25 138.8C1105.72 130.8 1107.18 123 1108.65 115.4C1110.25 107.667 1111.72 100.133 1113.05 92.8C1114.52 85.3333 1115.85 78.2667 1117.05 71.6L1149.05 69C1150.12 75.9333 1151.32 83.2 1152.65 90.8C1153.98 98.2667 1155.38 105.933 1156.85 113.8C1158.32 121.667 1159.72 129.6 1161.05 137.6C1162.78 146.533 1164.45 155.2 1166.05 163.6C1167.65 172 1169.25 179.933 1170.85 187.4C1172.58 194.867 1174.18 201.933 1175.65 208.6L1150.65 209C1149.72 201.667 1148.72 194.2 1147.65 186.6C1146.58 179 1145.45 171.4 1144.25 163.8C1143.18 156.067 1141.98 148.4 1140.65 140.8C1139.98 136.667 1139.25 132.6 1138.45 128.6C1137.78 124.467 1137.12 120.467 1136.45 116.6C1135.78 112.6 1135.12 108.733 1134.45 105C1133.78 101.267 1133.18 97.6667 1132.65 94.2C1131.85 98.6 1130.98 103.333 1130.05 108.4C1129.12 113.467 1128.18 118.667 1127.25 124C1126.32 129.2 1125.38 134.533 1124.45 140C1123.12 147.733 1121.85 155.667 1120.65 163.8C1119.45 171.933 1118.25 180 1117.05 188C1115.85 195.867 1114.65 203.333 1113.45 210.4L1089.85 211.4ZM1110.05 182.8V165.4L1154.05 163.8V183.4L1110.05 182.8ZM1187.96 69.8L1212.96 69.4C1212.96 69.4 1212.89 70.7333 1212.76 73.4C1212.76 75.9333 1212.62 79.4 1212.36 83.8C1212.22 88.0667 1212.09 93.0667 1211.96 98.8C1211.82 104.533 1211.69 110.6 1211.56 117C1211.56 123.267 1211.56 129.533 1211.56 135.8C1211.56 142.2 1211.56 148.867 1211.56 155.8C1211.69 162.6 1211.76 169.2 1211.76 175.6C1211.76 182 1211.76 187.8 1211.76 193C1211.89 198.2 1211.96 202.333 1211.96 205.4C1212.09 208.467 1212.16 210 1212.16 210H1187.16C1187.16 210 1187.22 208.267 1187.36 204.8C1187.49 201.333 1187.62 196.867 1187.76 191.4C1187.89 185.8 1188.02 179.733 1188.16 173.2C1188.29 166.667 1188.36 160.2 1188.36 153.8C1188.49 147.267 1188.56 141.4 1188.56 136.2C1188.56 130.733 1188.56 124.867 1188.56 118.6C1188.56 112.2 1188.49 105.867 1188.36 99.6C1188.36 93.3333 1188.29 87.6 1188.16 82.4C1188.16 77.0667 1188.09 72.8667 1187.96 69.8ZM1255.55 212.2C1253.42 212.2 1251.09 212.133 1248.55 212C1246.15 212 1243.62 211.867 1240.95 211.6C1238.42 211.333 1235.89 211.133 1233.35 211L1243.95 192.8C1245.95 193.2 1248.09 193.533 1250.35 193.8C1252.62 194.067 1254.75 194.267 1256.75 194.4C1258.89 194.4 1260.69 194.4 1262.15 194.4C1267.49 194.4 1271.62 193.267 1274.55 191C1277.62 188.6 1279.82 185.067 1281.15 180.4C1282.49 175.733 1283.29 169.933 1283.55 163C1283.95 155.933 1284.15 147.667 1284.15 138.2C1284.15 129.533 1283.95 121.933 1283.55 115.4C1283.29 108.867 1282.49 103.467 1281.15 99.2C1279.82 94.8 1277.69 91.5333 1274.75 89.4C1271.95 87.1333 1268.02 86 1262.95 86C1260.42 86 1257.42 86.2 1253.95 86.6C1250.49 87 1246.89 87.6 1243.15 88.4L1232.75 70.4C1237.69 69.7333 1242.49 69.2667 1247.15 69C1251.95 68.6 1256.22 68.4 1259.95 68.4C1269.82 68.4 1277.82 69.6667 1283.95 72.2C1290.22 74.6 1295.09 78.6 1298.55 84.2C1302.02 89.6667 1304.42 96.8667 1305.75 105.8C1307.09 114.733 1307.75 125.667 1307.75 138.6C1307.75 149.267 1307.35 158.667 1306.55 166.8C1305.89 174.933 1304.49 181.867 1302.35 187.6C1300.35 193.333 1297.42 198 1293.55 201.6C1289.69 205.2 1284.62 207.867 1278.35 209.6C1272.09 211.333 1264.49 212.2 1255.55 212.2ZM1233.35 211C1233.49 205.533 1233.62 198.733 1233.75 190.6C1233.89 182.467 1233.95 173.867 1233.95 164.8C1234.09 155.733 1234.15 147.133 1234.15 139C1234.15 131.267 1234.09 123.133 1233.95 114.6C1233.82 106.067 1233.62 97.9333 1233.35 90.2C1233.22 82.3333 1233.02 75.7333 1232.75 70.4L1256.95 71.8C1256.82 75.6667 1256.69 79.8 1256.55 84.2C1256.55 88.6 1256.55 93.2 1256.55 98C1256.55 102.667 1256.49 107.4 1256.35 112.2C1256.35 116.867 1256.35 121.533 1256.35 126.2C1256.35 130.733 1256.35 135.067 1256.35 139.2C1256.35 142.533 1256.35 146.467 1256.35 151C1256.35 155.533 1256.35 160.4 1256.35 165.6C1256.49 170.8 1256.55 176.067 1256.55 181.4C1256.69 186.733 1256.75 191.933 1256.75 197C1256.89 201.933 1256.95 206.533 1256.95 210.8L1233.35 211ZM1405.61 211C1398.67 211 1392.94 209.867 1388.41 207.6C1384.01 205.333 1380.61 202 1378.21 197.6C1375.81 193.2 1374.07 187.8 1373.01 181.4C1372.34 177.533 1371.81 173.4 1371.41 169C1371.14 164.467 1370.94 159.667 1370.81 154.6C1370.81 149.533 1370.81 144.2 1370.81 138.6C1370.81 134.6 1370.81 130.733 1370.81 127C1370.94 123.267 1371.14 119.733 1371.41 116.4C1371.67 112.933 1372.01 109.667 1372.41 106.6C1372.94 103.533 1373.47 100.667 1374.01 98C1376.14 88.8 1379.81 81.6667 1385.01 76.6C1390.34 71.4 1398.14 68.8 1408.41 68.8C1418.54 68.8 1426.01 71.3333 1430.81 76.4C1435.74 81.4667 1439.07 88.6 1440.81 97.8C1441.87 103.267 1442.54 109.467 1442.81 116.4C1443.07 123.2 1443.21 130.667 1443.21 138.8C1443.21 145.2 1443.07 151.2 1442.81 156.8C1442.67 162.4 1442.27 167.6 1441.61 172.4C1441.07 177.2 1440.21 181.6 1439.01 185.6C1437.54 191.067 1435.41 195.733 1432.61 199.6C1429.81 203.333 1426.21 206.2 1421.81 208.2C1417.41 210.067 1412.01 211 1405.61 211ZM1406.81 192.2C1409.34 192.2 1411.34 191.533 1412.81 190.2C1414.41 188.867 1415.67 186.8 1416.61 184C1417.54 181.067 1418.21 177.533 1418.61 173.4C1419.01 170.467 1419.21 167.267 1419.21 163.8C1419.34 160.2 1419.41 156.267 1419.41 152C1419.54 147.733 1419.61 143.133 1419.61 138.2C1419.61 131.267 1419.54 125.133 1419.41 119.8C1419.41 114.333 1419.21 109.667 1418.81 105.8C1418.41 101.4 1417.81 97.8667 1417.01 95.2C1416.21 92.4 1415.01 90.4 1413.41 89.2C1411.94 88 1410.01 87.4 1407.61 87.4C1405.07 87.4 1403.01 88.0667 1401.41 89.4C1399.81 90.7333 1398.54 92.8 1397.61 95.6C1396.81 98.2667 1396.14 101.8 1395.61 106.2C1395.34 108.333 1395.14 110.667 1395.01 113.2C1394.87 115.733 1394.74 118.467 1394.61 121.4C1394.61 124.333 1394.54 127.4 1394.41 130.6C1394.41 133.8 1394.41 137.2 1394.41 140.8C1394.41 148.133 1394.41 154.6 1394.41 160.2C1394.54 165.667 1394.81 170.4 1395.21 174.4C1395.61 178.533 1396.21 181.933 1397.01 184.6C1397.81 187.267 1399.01 189.2 1400.61 190.4C1402.21 191.6 1404.27 192.2 1406.81 192.2ZM1465 209.8C1465 209.8 1465 207.867 1465 204C1465.14 200 1465.27 194.733 1465.4 188.2C1465.54 181.533 1465.6 174.067 1465.6 165.8C1465.74 157.533 1465.8 149.2 1465.8 140.8C1465.8 132.267 1465.74 123.733 1465.6 115.2C1465.47 106.667 1465.27 98.8667 1465 91.8C1464.87 84.7333 1464.74 79.0667 1464.6 74.8C1464.6 70.5333 1464.6 68.4 1464.6 68.4L1489.4 71C1489.4 71 1489.34 72.6667 1489.2 76C1489.2 79.2 1489.2 83.4667 1489.2 88.8C1489.2 94.1333 1489.14 100 1489 106.4C1489 112.667 1488.94 118.867 1488.8 125C1488.8 131 1488.8 136.333 1488.8 141C1488.8 145.8 1488.8 151.267 1488.8 157.4C1488.94 163.4 1489 169.467 1489 175.6C1489 181.733 1489 187.4 1489 192.6C1489.14 197.667 1489.2 201.8 1489.2 205C1489.34 208.067 1489.4 209.6 1489.4 209.6L1465 209.8ZM1476 167.4V147.6L1523.2 148.2L1525.2 166.4L1476 167.4ZM1474.8 88L1464.6 68.4L1523.8 70.4L1524.4 88.2L1474.8 88ZM1619.23 212C1612.56 212 1606.76 211.133 1601.83 209.4C1597.03 207.667 1593.03 205.267 1589.83 202.2C1586.76 199.133 1584.43 195.533 1582.83 191.4C1581.23 187.133 1580.43 182.467 1580.43 177.4C1580.43 175.4 1580.56 173.4 1580.83 171.4C1581.1 169.267 1581.43 167.133 1581.83 165H1603.63C1603.1 167.133 1602.7 169.2 1602.43 171.2C1602.16 173.067 1602.03 174.867 1602.03 176.6C1602.03 180.2 1602.56 183.333 1603.63 186C1604.7 188.667 1606.43 190.8 1608.83 192.4C1611.36 193.867 1614.56 194.6 1618.43 194.6C1622.96 194.6 1626.5 193.933 1629.03 192.6C1631.7 191.133 1633.56 189.267 1634.63 187C1635.83 184.733 1636.43 182.2 1636.43 179.4C1636.43 176.6 1635.83 174.2 1634.63 172.2C1633.43 170.2 1631.76 168.4 1629.63 166.8C1627.5 165.067 1624.96 163.467 1622.03 162C1619.1 160.4 1615.9 158.667 1612.43 156.8C1608.43 154.667 1604.5 152.267 1600.63 149.6C1596.76 146.933 1593.3 143.8 1590.23 140.2C1587.16 136.467 1584.7 132.133 1582.83 127.2C1581.1 122.267 1580.23 116.467 1580.23 109.8C1580.23 102.067 1581.7 95.1333 1584.63 89C1587.56 82.8667 1592.03 78 1598.03 74.4C1604.03 70.8 1611.63 69 1620.83 69C1630.56 69 1638.23 70.8 1643.83 74.4C1649.56 78 1653.63 82.8667 1656.03 89C1658.43 95.1333 1659.63 102.133 1659.63 110C1659.63 112.267 1659.5 114.6 1659.23 117C1659.1 119.267 1658.9 121.6 1658.63 124C1658.36 126.267 1658.1 128.6 1657.83 131H1634.83C1635.23 127.4 1635.56 123.867 1635.83 120.4C1636.1 116.933 1636.23 113.667 1636.23 110.6C1636.23 105.933 1635.76 101.867 1634.83 98.4C1634.03 94.8 1632.43 92 1630.03 90C1627.76 88 1624.43 87 1620.03 87C1616.96 87 1614.3 87.6 1612.03 88.8C1609.9 89.8667 1608.16 91.4 1606.83 93.4C1605.5 95.4 1604.5 97.7333 1603.83 100.4C1603.3 103.067 1603.03 105.933 1603.03 109C1603.03 114.067 1603.9 118.333 1605.63 121.8C1607.36 125.133 1609.83 128.067 1613.03 130.6C1616.23 133.133 1619.9 135.467 1624.03 137.6C1628.43 139.867 1632.7 142.2 1636.83 144.6C1640.96 147 1644.76 149.733 1648.23 152.8C1651.7 155.733 1654.43 159.267 1656.43 163.4C1658.43 167.4 1659.43 172.333 1659.43 178.2C1659.43 184.333 1657.96 190 1655.03 195.2C1652.23 200.267 1647.83 204.333 1641.83 207.4C1635.96 210.467 1628.43 212 1619.23 212ZM1674 69.2L1699.6 66.8C1700.27 69.3333 1701.27 72.8 1702.6 77.2C1703.94 81.6 1705.47 86.6 1707.2 92.2C1708.94 97.6667 1710.74 103.4 1712.6 109.4C1714.6 115.4 1716.47 121.133 1718.2 126.6C1719.8 131.8 1721.4 136.867 1723 141.8C1724.6 146.6 1726 150.933 1727.2 154.8C1728.4 158.667 1729.4 161.867 1730.2 164.4C1730.2 160.267 1730.14 155.8 1730 151C1730 146.2 1729.94 141.133 1729.8 135.8C1729.8 130.333 1729.8 124.867 1729.8 119.4C1729.67 114.733 1729.6 109.867 1729.6 104.8C1729.6 99.6 1729.54 94.4 1729.4 89.2C1729.4 84 1729.34 79.0667 1729.2 74.4C1729.2 69.6 1729.14 65.3333 1729 61.6L1751.4 63.2C1751.27 68.2667 1751.14 74.5333 1751 82C1750.87 89.3333 1750.74 97.2 1750.6 105.6C1750.6 114 1750.54 122.333 1750.4 130.6C1750.4 137.4 1750.34 144.333 1750.2 151.4C1750.2 158.333 1750.2 165.267 1750.2 172.2C1750.2 179 1750.2 185.533 1750.2 191.8C1750.2 198.067 1750.2 203.8 1750.2 209L1725.4 210.4C1724.07 206 1722.34 200.533 1720.2 194C1718.2 187.467 1716 180.6 1713.6 173.4C1711.2 166.067 1708.87 159.133 1706.6 152.6C1705.54 149.267 1704.47 146.133 1703.4 143.2C1702.47 140.133 1701.54 137.267 1700.6 134.6C1699.67 131.8 1698.8 129.267 1698 127C1697.2 124.6 1696.47 122.467 1695.8 120.6C1695.8 126.333 1695.8 132.467 1695.8 139C1695.94 145.4 1696 152 1696 158.8C1696 163.467 1696 168.2 1696 173C1696.14 177.8 1696.2 182.6 1696.2 187.4C1696.2 192.2 1696.2 196.8 1696.2 201.2C1696.34 205.6 1696.47 209.6 1696.6 213.2L1674.6 215.2C1674.74 210.133 1674.8 204.067 1674.8 197C1674.8 189.8 1674.8 182.267 1674.8 174.4C1674.94 166.4 1675 158.867 1675 151.8C1675 141.8 1674.94 131.8 1674.8 121.8C1674.8 111.667 1674.74 102.133 1674.6 93.2C1674.47 84.1333 1674.27 76.1333 1674 69.2ZM1825.31 211C1824.24 203.8 1823.17 196.267 1822.11 188.4C1821.04 180.533 1819.91 172.6 1818.71 164.6C1817.51 156.6 1816.17 148.667 1814.71 140.8C1813.77 135.2 1812.84 129.733 1811.91 124.4C1811.11 118.933 1810.31 113.733 1809.51 108.8C1808.71 103.867 1807.91 99.1333 1807.11 94.6C1806.44 90.0667 1805.77 85.8667 1805.11 82L1791.91 70.2L1823.11 69C1823.91 74.2 1824.77 79.6 1825.71 85.2C1826.64 90.6667 1827.57 96.3333 1828.51 102.2C1829.57 107.933 1830.64 113.8 1831.71 119.8C1832.91 125.8 1834.11 131.733 1835.31 137.6C1836.91 146.533 1838.57 155.333 1840.31 164C1842.04 172.533 1843.77 180.733 1845.51 188.6C1847.24 196.333 1848.84 203.467 1850.31 210L1825.31 211ZM1784.51 183.4V163.8L1828.51 164.6V182L1784.51 183.4ZM1788.11 208.8L1764.51 208.6C1765.97 202.333 1767.44 195.467 1768.91 188C1770.51 180.533 1772.11 172.667 1773.71 164.4C1775.44 156 1777.17 147.467 1778.91 138.8C1780.51 130.8 1782.04 122.867 1783.51 115C1785.11 107.133 1786.57 99.4 1787.91 91.8C1789.24 84.2 1790.57 77 1791.91 70.2L1823.11 69L1808.71 83.6C1807.77 88.4 1806.77 93.8 1805.71 99.8C1804.64 105.8 1803.57 112.2 1802.51 119C1801.44 125.667 1800.31 132.667 1799.11 140C1797.77 147.733 1796.44 155.6 1795.11 163.6C1793.91 171.467 1792.71 179.2 1791.51 186.8C1790.44 194.4 1789.31 201.733 1788.11 208.8ZM1915.21 209.8C1911.21 203.4 1907.08 197.067 1902.81 190.8C1898.55 184.533 1894.21 178.4 1889.81 172.4C1885.41 166.4 1881.01 160.6 1876.61 155C1880.61 147.4 1884.55 139.667 1888.41 131.8C1892.41 123.8 1896.21 116 1899.81 108.4C1903.41 100.8 1906.68 93.7333 1909.61 87.2C1912.68 80.5333 1915.35 74.6667 1917.61 69.6L1942.61 69C1940.08 73.4 1937.35 78.3333 1934.41 83.8C1931.48 89.2667 1928.41 95 1925.21 101C1922.01 107 1918.81 113 1915.61 119C1912.55 125 1909.61 130.667 1906.81 136C1904.01 141.333 1901.55 146.067 1899.41 150.2C1902.61 154.733 1905.81 159.333 1909.01 164C1912.35 168.533 1915.81 173.2 1919.41 178C1923.01 182.667 1926.81 187.6 1930.81 192.8C1934.95 197.867 1939.28 203.2 1943.81 208.8L1915.21 209.8ZM1862.81 209.8C1862.81 207.4 1862.81 204.267 1862.81 200.4C1862.95 196.533 1863.08 192.2 1863.21 187.4C1863.35 182.467 1863.41 177.267 1863.41 171.8C1863.55 166.333 1863.61 160.867 1863.61 155.4C1863.61 149.8 1863.61 144.4 1863.61 139.2C1863.61 132.4 1863.55 125.4 1863.41 118.2C1863.41 111 1863.35 104.133 1863.21 97.6C1863.08 90.9333 1862.95 85.1333 1862.81 80.2C1862.81 75.1333 1862.75 71.4667 1862.61 69.2L1887.41 70C1887.41 71.8667 1887.35 74.7333 1887.21 78.6C1887.21 82.4667 1887.15 86.9333 1887.01 92C1887.01 97.0667 1886.95 102.4 1886.81 108C1886.81 113.6 1886.75 119.133 1886.61 124.6C1886.61 129.933 1886.61 134.8 1886.61 139.2C1886.61 143.067 1886.61 147.667 1886.61 153C1886.75 158.333 1886.81 163.933 1886.81 169.8C1886.81 175.667 1886.81 181.267 1886.81 186.6C1886.95 191.933 1887.01 196.667 1887.01 200.8C1887.15 204.8 1887.21 207.733 1887.21 209.6L1862.81 209.8ZM1949.8 210.6C1949.8 210.6 1949.8 209.2 1949.8 206.4C1949.93 203.467 1950 199.6 1950 194.8C1950.13 189.867 1950.2 184.267 1950.2 178C1950.33 171.733 1950.4 165.133 1950.4 158.2C1950.53 151.267 1950.6 144.4 1950.6 137.6C1950.6 129.067 1950.53 120.8 1950.4 112.8C1950.27 104.667 1950.13 97.4 1950 91C1949.87 84.4667 1949.73 79.3333 1949.6 75.6C1949.47 71.7333 1949.4 69.8 1949.4 69.8L1973.6 72.2C1973.6 72.2 1973.53 73.7333 1973.4 76.8C1973.4 79.7333 1973.4 83.6667 1973.4 88.6C1973.4 93.4 1973.33 98.7333 1973.2 104.6C1973.2 110.467 1973.13 116.267 1973 122C1973 127.733 1973 132.933 1973 137.6C1973 142.267 1973 147.733 1973 154C1973.13 160.267 1973.2 166.6 1973.2 173C1973.2 179.4 1973.2 185.333 1973.2 190.8C1973.33 196.267 1973.4 200.733 1973.4 204.2C1973.53 207.533 1973.6 209.2 1973.6 209.2L1949.8 210.6ZM1949.8 210.6L1961.6 193.2L2014.4 193.8V210L1949.8 210.6ZM1960.6 163.4V144L2013.4 144.6L2011 162.6L1960.6 163.4ZM1959 88.6L1949.4 69.8L2011.8 71.4L2013.6 88.8L1959 88.6ZM2063.92 212C2057.52 212 2051.92 211.2 2047.12 209.6C2042.32 207.867 2038.25 205.533 2034.92 202.6C2031.72 199.533 2029.32 195.867 2027.72 191.6C2026.12 187.333 2025.32 182.467 2025.32 177C2025.32 174.467 2025.52 171.867 2025.92 169.2C2026.32 166.4 2026.85 163.533 2027.52 160.6H2049.12C2048.45 163.4 2047.98 166.067 2047.72 168.6C2047.45 171.133 2047.32 173.533 2047.32 175.8C2047.32 181.667 2048.52 186.267 2050.92 189.6C2053.45 192.933 2057.52 194.6 2063.12 194.6C2067.65 194.6 2071.25 193.8 2073.92 192.2C2076.58 190.6 2078.45 188.6 2079.52 186.2C2080.72 183.667 2081.32 181 2081.32 178.2C2081.32 174.733 2080.65 171.8 2079.32 169.4C2078.12 166.867 2076.45 164.667 2074.32 162.8C2072.18 160.8 2069.65 158.933 2066.72 157.2C2063.92 155.467 2060.78 153.733 2057.32 152C2053.18 149.733 2049.18 147.333 2045.32 144.8C2041.58 142.267 2038.18 139.267 2035.12 135.8C2032.05 132.333 2029.58 128.2 2027.72 123.4C2025.85 118.6 2024.92 112.867 2024.92 106.2C2024.92 99.1333 2026.45 92.8 2029.52 87.2C2032.72 81.6 2037.32 77.2 2043.32 74C2049.45 70.6667 2056.85 69 2065.52 69C2074.85 69 2082.32 70.6 2087.92 73.8C2093.65 77 2097.78 81.5333 2100.32 87.4C2102.98 93.2667 2104.32 100.267 2104.32 108.4C2104.32 109.733 2104.25 111.2 2104.12 112.8C2104.12 114.4 2104.05 116 2103.92 117.6C2103.78 119.2 2103.58 120.867 2103.32 122.6C2103.05 124.2 2102.78 125.867 2102.52 127.6H2079.52C2079.92 125.333 2080.18 123.2 2080.32 121.2C2080.58 119.2 2080.78 117.267 2080.92 115.4C2081.18 113.4 2081.32 111.533 2081.32 109.8C2081.32 105.133 2080.72 101.067 2079.52 97.6C2078.45 94.1333 2076.72 91.5333 2074.32 89.8C2071.92 87.9333 2068.65 87 2064.52 87C2061.85 87 2059.45 87.4667 2057.32 88.4C2055.18 89.3333 2053.38 90.6667 2051.92 92.4C2050.58 94 2049.52 95.9333 2048.72 98.2C2048.05 100.467 2047.72 102.933 2047.72 105.6C2047.72 110.533 2048.58 114.6 2050.32 117.8C2052.18 121 2054.72 123.733 2057.92 126C2061.12 128.133 2064.78 130.333 2068.92 132.6C2073.18 134.867 2077.38 137.333 2081.52 140C2085.65 142.533 2089.45 145.467 2092.92 148.8C2096.38 152 2099.12 155.933 2101.12 160.6C2103.25 165.133 2104.32 170.467 2104.32 176.6C2104.32 182.733 2102.85 188.533 2099.92 194C2097.12 199.333 2092.72 203.667 2086.72 207C2080.85 210.333 2073.25 212 2063.92 212ZM2171.89 167.2L2150.69 167C2150.29 164.467 2149.89 162.067 2149.49 159.8C2149.23 157.533 2149.09 155.333 2149.09 153.2C2149.09 147.867 2150.03 143.467 2151.89 140C2153.89 136.533 2156.29 133.533 2159.09 131C2161.89 128.467 2164.69 125.933 2167.49 123.4C2169.49 121.533 2171.29 119.6 2172.89 117.6C2174.63 115.467 2175.96 113.133 2176.89 110.6C2177.96 107.933 2178.49 104.8 2178.49 101.2C2178.49 97.6 2177.76 94.6667 2176.29 92.4C2174.96 90.1333 2173.03 88.4667 2170.49 87.4C2168.09 86.2 2165.29 85.6 2162.09 85.6C2158.49 85.6 2155.36 86.4 2152.69 88C2150.16 89.4667 2148.23 91.6667 2146.89 94.6C2145.56 97.4 2144.89 100.8 2144.89 104.8C2144.89 107.6 2145.16 110.4 2145.69 113.2C2146.23 116 2146.89 118.733 2147.69 121.4L2125.89 121.2C2124.96 118.133 2124.23 115.133 2123.69 112.2C2123.29 109.267 2123.09 106.4 2123.09 103.6C2123.09 98.1333 2123.96 93.2 2125.69 88.8C2127.56 84.2667 2130.16 80.4 2133.49 77.2C2136.96 73.8667 2141.16 71.3333 2146.09 69.6C2151.16 67.7333 2156.89 66.8 2163.29 66.8C2171.29 66.8 2178.03 68.2 2183.49 71C2188.96 73.8 2193.09 77.6667 2195.89 82.6C2198.83 87.5333 2200.29 93.2667 2200.29 99.8C2200.29 106.467 2199.29 112.067 2197.29 116.6C2195.29 121 2192.83 124.733 2189.89 127.8C2186.96 130.867 2184.03 133.667 2181.09 136.2C2178.03 138.733 2175.36 141.333 2173.09 144C2170.96 146.667 2169.89 149.867 2169.89 153.6C2169.89 155.6 2170.03 157.667 2170.29 159.8C2170.69 161.933 2171.23 164.4 2171.89 167.2ZM2173.29 210.6L2150.49 210L2150.69 180.2L2171.29 179.8L2173.29 210.6Z" fill="black"/>
<path d="M1332.11 400C1332.11 400 1332.16 398.693 1332.25 396.08C1332.35 393.467 1332.44 390.06 1332.53 385.86C1332.72 381.567 1332.86 376.993 1332.95 372.14C1333.05 367.287 1333.14 362.62 1333.23 358.14C1333.33 353.66 1333.37 349.833 1333.37 346.66C1333.37 343.393 1333.33 339.753 1333.23 335.74C1333.23 331.727 1333.19 327.713 1333.09 323.7C1333.09 319.593 1333.05 315.86 1332.95 312.5C1332.95 309.047 1332.91 306.293 1332.81 304.24C1332.81 302.187 1332.81 301.16 1332.81 301.16L1344.57 300.88C1344.57 300.88 1344.48 302.14 1344.29 304.66C1344.2 307.087 1344.06 310.447 1343.87 314.74C1343.78 318.94 1343.64 323.793 1343.45 329.3C1343.36 334.713 1343.31 340.407 1343.31 346.38C1343.31 352.353 1343.36 358.513 1343.45 364.86C1343.55 371.113 1343.59 376.9 1343.59 382.22C1343.69 387.54 1343.78 391.833 1343.87 395.1C1343.97 398.367 1344.01 400 1344.01 400H1332.11ZM1303.13 364.86L1338.83 363.88V373.82L1303.13 373.26V364.86ZM1296.41 399.72C1296.41 399.72 1296.46 398.32 1296.55 395.52C1296.65 392.627 1296.69 388.8 1296.69 384.04C1296.79 379.28 1296.88 374.007 1296.97 368.22C1297.07 362.433 1297.11 356.553 1297.11 350.58C1297.11 344.607 1297.02 338.773 1296.83 333.08C1296.74 327.387 1296.6 322.3 1296.41 317.82C1296.32 313.247 1296.18 309.607 1295.99 306.9C1295.9 304.193 1295.85 302.84 1295.85 302.84L1307.61 302.28C1307.61 302.28 1307.57 303.447 1307.47 305.78C1307.47 308.02 1307.43 311.007 1307.33 314.74C1307.33 318.38 1307.29 322.393 1307.19 326.78C1307.19 331.073 1307.15 335.32 1307.05 339.52C1307.05 343.72 1307.05 347.453 1307.05 350.72C1307.05 353.987 1307.05 357.767 1307.05 362.06C1307.15 366.26 1307.24 370.553 1307.33 374.94C1307.43 379.327 1307.47 383.387 1307.47 387.12C1307.57 390.853 1307.61 393.887 1307.61 396.22C1307.71 398.46 1307.75 399.58 1307.75 399.58L1296.41 399.72ZM1355.59 400.7C1355.59 400.7 1355.59 399.58 1355.59 397.34C1355.68 395.007 1355.73 391.927 1355.73 388.1C1355.82 384.273 1355.87 379.98 1355.87 375.22C1355.87 370.367 1355.87 365.373 1355.87 360.24C1355.96 355.013 1356.01 350.02 1356.01 345.26C1356.01 339.287 1355.96 333.687 1355.87 328.46C1355.87 323.233 1355.82 318.66 1355.73 314.74C1355.73 310.82 1355.68 307.74 1355.59 305.5C1355.59 303.26 1355.59 302.14 1355.59 302.14L1366.37 303.4C1366.37 303.4 1366.32 304.333 1366.23 306.2C1366.23 307.973 1366.23 310.353 1366.23 313.34C1366.23 316.327 1366.18 319.687 1366.09 323.42C1366.09 327.06 1366.04 330.747 1365.95 334.48C1365.95 338.213 1365.95 341.713 1365.95 344.98C1365.95 348.247 1365.95 352.213 1365.95 356.88C1366.04 361.453 1366.09 366.213 1366.09 371.16C1366.18 376.013 1366.23 380.587 1366.23 384.88C1366.32 389.173 1366.37 392.673 1366.37 395.38C1366.46 397.993 1366.51 399.3 1366.51 399.3L1355.59 400.7ZM1355.59 400.7L1361.75 390.76L1397.31 391.46V400L1355.59 400.7ZM1361.05 371.58V362.06L1396.89 362.48L1396.61 371.02L1361.05 371.58ZM1360.07 312.5L1355.59 302.14L1395.63 302.98V312.36L1360.07 312.5ZM1404.25 301.44L1420.21 299.62C1420.96 302.7 1421.84 306.2 1422.87 310.12C1423.9 314.04 1425.02 318.193 1426.23 322.58C1427.44 326.967 1428.66 331.447 1429.87 336.02C1431.08 340.593 1432.3 345.027 1433.51 349.32C1434.91 353.987 1436.26 358.607 1437.57 363.18C1438.88 367.753 1440.09 371.953 1441.21 375.78C1442.33 379.607 1443.31 382.873 1444.15 385.58C1444.15 381.753 1444.1 377.787 1444.01 373.68C1444.01 369.48 1443.96 365.187 1443.87 360.8C1443.87 356.413 1443.87 352.027 1443.87 347.64C1443.87 343.813 1443.82 339.8 1443.73 335.6C1443.73 331.307 1443.73 326.92 1443.73 322.44C1443.73 317.867 1443.68 313.387 1443.59 309C1443.59 304.52 1443.54 300.227 1443.45 296.12L1453.95 297.1C1453.86 300.927 1453.72 305.64 1453.53 311.24C1453.44 316.84 1453.34 322.86 1453.25 329.3C1453.25 335.74 1453.25 342.087 1453.25 348.34C1453.25 352.82 1453.25 357.393 1453.25 362.06C1453.25 366.633 1453.25 371.16 1453.25 375.64C1453.34 380.027 1453.39 384.273 1453.39 388.38C1453.48 392.487 1453.58 396.267 1453.67 399.72L1438.13 400.84C1436.92 396.173 1435.52 391.04 1433.93 385.44C1432.44 379.747 1430.85 373.913 1429.17 367.94C1427.58 361.873 1425.95 355.993 1424.27 350.3C1423.34 347.127 1422.4 344.047 1421.47 341.06C1420.63 337.98 1419.79 335.04 1418.95 332.24C1418.11 329.44 1417.27 326.78 1416.43 324.26C1415.68 321.647 1414.94 319.22 1414.19 316.98C1414.19 321.553 1414.19 326.827 1414.19 332.8C1414.28 338.773 1414.33 345.213 1414.33 352.12C1414.33 355.76 1414.33 359.633 1414.33 363.74C1414.42 367.847 1414.47 372.093 1414.47 376.48C1414.47 380.867 1414.47 385.3 1414.47 389.78C1414.56 394.26 1414.66 398.6 1414.75 402.8L1404.67 404.06C1404.76 399.86 1404.81 394.773 1404.81 388.8C1404.81 382.827 1404.81 376.573 1404.81 370.04C1404.9 363.413 1404.95 357.113 1404.95 351.14C1404.95 344.98 1404.9 338.913 1404.81 332.94C1404.81 326.873 1404.76 321.18 1404.67 315.86C1404.58 310.447 1404.44 305.64 1404.25 301.44ZM1472.5 369.06L1471.94 359.96C1476.61 359.96 1480.71 359.68 1484.26 359.12C1487.81 358.467 1490.79 357.3 1493.22 355.62C1495.65 353.94 1497.47 351.513 1498.68 348.34C1499.99 345.073 1500.64 340.873 1500.64 335.74C1500.64 328.647 1500.03 323.187 1498.82 319.36C1497.7 315.44 1495.69 312.687 1492.8 311.1C1489.91 309.513 1485.89 308.72 1480.76 308.72C1478.99 308.72 1477.03 308.813 1474.88 309C1472.83 309.093 1470.59 309.28 1468.16 309.56L1465.08 300.6C1466.76 300.507 1468.35 300.413 1469.84 300.32C1471.33 300.227 1472.78 300.18 1474.18 300.18C1475.67 300.087 1477.07 300.04 1478.38 300.04C1485.94 300.04 1492.05 300.973 1496.72 302.84C1501.48 304.613 1504.93 308.067 1507.08 313.2C1509.32 318.24 1510.44 325.613 1510.44 335.32C1510.44 343.813 1508.9 350.533 1505.82 355.48C1502.74 360.333 1498.35 363.833 1492.66 365.98C1486.97 368.033 1480.25 369.06 1472.5 369.06ZM1464.94 400.84C1465.03 396.92 1465.13 392.113 1465.22 386.42C1465.31 380.727 1465.36 374.707 1465.36 368.36C1465.45 361.92 1465.5 355.807 1465.5 350.02C1465.5 344.14 1465.45 338.12 1465.36 331.96C1465.36 325.707 1465.31 319.827 1465.22 314.32C1465.22 308.813 1465.17 304.24 1465.08 300.6L1476.28 301.58C1476.19 304.193 1476.09 307.133 1476 310.4C1476 313.573 1475.95 316.887 1475.86 320.34C1475.77 323.793 1475.67 327.247 1475.58 330.7C1475.58 334.153 1475.53 337.513 1475.44 340.78C1475.44 344.047 1475.44 347.033 1475.44 349.74C1475.44 352.54 1475.44 356.04 1475.44 360.24C1475.53 364.44 1475.58 368.92 1475.58 373.68C1475.67 378.347 1475.72 383.013 1475.72 387.68C1475.81 392.253 1475.91 396.453 1476 400.28L1464.94 400.84ZM1502.6 400.84C1499.99 394.493 1497.19 388.147 1494.2 381.8C1491.21 375.453 1487.9 368.873 1484.26 362.06L1494.2 357.86C1497.09 364.673 1500.31 371.627 1503.86 378.72C1507.5 385.72 1511.42 392.953 1515.62 400.42L1502.6 400.84ZM1531.25 400.84C1531.25 400.84 1531.29 398.087 1531.39 392.58C1531.57 387.073 1531.57 378.673 1531.39 367.38L1541.05 368.64C1541.14 372.467 1541.23 376.247 1541.33 379.98C1541.42 383.713 1541.51 387.073 1541.61 390.06C1541.7 393.047 1541.75 395.427 1541.75 397.2C1541.84 398.973 1541.89 399.86 1541.89 399.86L1531.25 400.84ZM1508.43 300.6L1519.49 300.46C1520.14 302.607 1520.93 305.453 1521.87 309C1522.89 312.547 1524.01 316.42 1525.23 320.62C1526.53 324.82 1527.79 328.927 1529.01 332.94C1530.59 338.167 1532.09 343.16 1533.49 347.92C1534.89 352.587 1535.91 355.9 1536.57 357.86C1537.13 356.273 1537.78 354.22 1538.53 351.7C1539.37 349.18 1540.25 346.38 1541.19 343.3C1542.21 340.127 1543.24 336.953 1544.27 333.78C1545.11 331.073 1545.95 328.32 1546.79 325.52C1547.72 322.627 1548.61 319.827 1549.45 317.12C1550.29 314.32 1551.08 311.707 1551.83 309.28C1552.57 306.76 1553.23 304.52 1553.79 302.56L1564.71 302.98C1564.05 305.033 1563.12 307.787 1561.91 311.24C1560.69 314.693 1559.34 318.567 1557.85 322.86C1556.45 327.06 1555 331.4 1553.51 335.88C1551.73 341.013 1550.01 346.1 1548.33 351.14C1546.65 356.18 1545.11 360.753 1543.71 364.86C1542.4 368.967 1541.37 372.233 1540.63 374.66H1532.23C1531.57 372.513 1530.78 369.947 1529.85 366.96C1528.91 363.88 1527.89 360.567 1526.77 357.02C1525.65 353.473 1524.48 349.787 1523.27 345.96C1522.05 342.133 1520.79 338.26 1519.49 334.34C1518.37 330.98 1517.25 327.667 1516.13 324.4C1515.1 321.133 1514.07 318.053 1513.05 315.16C1512.11 312.173 1511.27 309.467 1510.53 307.04C1509.69 304.52 1508.99 302.373 1508.43 300.6ZM1575.33 333.36L1570.43 330.98C1572.02 328.273 1573.14 325.66 1573.79 323.14C1574.54 320.62 1574.91 317.913 1574.91 315.02L1569.45 314.6L1569.17 298.92L1580.51 297.94V314.46C1580.51 318.007 1580.05 321.367 1579.11 324.54C1578.18 327.713 1576.92 330.653 1575.33 333.36ZM1615.51 401.4C1611.12 401.4 1607.39 400.793 1604.31 399.58C1601.32 398.273 1598.9 396.547 1597.03 394.4C1595.26 392.253 1593.95 389.78 1593.11 386.98C1592.27 384.18 1591.85 381.24 1591.85 378.16C1591.85 376.76 1591.9 375.36 1591.99 373.96C1592.18 372.56 1592.41 371.113 1592.69 369.62H1602.21C1602.02 371.113 1601.84 372.607 1601.65 374.1C1601.56 375.593 1601.51 376.993 1601.51 378.3C1601.51 381.007 1601.84 383.48 1602.49 385.72C1603.24 387.867 1604.59 389.593 1606.55 390.9C1608.51 392.207 1611.31 392.86 1614.95 392.86C1618.68 392.86 1621.62 392.253 1623.77 391.04C1625.92 389.827 1627.46 388.24 1628.39 386.28C1629.42 384.32 1629.93 382.173 1629.93 379.84C1629.93 377.413 1629.37 375.313 1628.25 373.54C1627.22 371.767 1625.82 370.133 1624.05 368.64C1622.28 367.147 1620.27 365.7 1618.03 364.3C1615.79 362.9 1613.5 361.453 1611.17 359.96C1608.74 358.373 1606.36 356.647 1604.03 354.78C1601.79 352.913 1599.74 350.767 1597.87 348.34C1596 345.82 1594.51 342.927 1593.39 339.66C1592.27 336.3 1591.71 332.473 1591.71 328.18C1591.71 322.953 1592.69 318.333 1594.65 314.32C1596.7 310.307 1599.6 307.18 1603.33 304.94C1607.06 302.607 1611.5 301.44 1616.63 301.44C1623.16 301.44 1628.11 302.793 1631.47 305.5C1634.92 308.113 1637.26 311.52 1638.47 315.72C1639.78 319.92 1640.43 324.353 1640.43 329.02C1640.43 330.887 1640.34 332.753 1640.15 334.62C1640.06 336.393 1639.92 338.167 1639.73 339.94C1639.54 341.62 1639.36 343.253 1639.17 344.84H1628.95C1629.32 342.413 1629.65 339.847 1629.93 337.14C1630.21 334.433 1630.35 331.727 1630.35 329.02C1630.35 325.66 1629.98 322.58 1629.23 319.78C1628.48 316.887 1627.08 314.6 1625.03 312.92C1623.07 311.147 1620.18 310.26 1616.35 310.26C1613.64 310.26 1611.36 310.773 1609.49 311.8C1607.62 312.733 1606.13 314.087 1605.01 315.86C1603.89 317.54 1603.05 319.5 1602.49 321.74C1602.02 323.887 1601.79 326.173 1601.79 328.6C1601.79 332.613 1602.49 336.067 1603.89 338.96C1605.29 341.76 1607.16 344.233 1609.49 346.38C1611.82 348.433 1614.34 350.347 1617.05 352.12C1619.76 353.8 1622.46 355.48 1625.17 357.16C1627.88 358.84 1630.35 360.66 1632.59 362.62C1634.92 364.58 1636.74 366.867 1638.05 369.48C1639.45 372.093 1640.15 375.22 1640.15 378.86C1640.15 383.34 1639.12 387.307 1637.07 390.76C1635.11 394.12 1632.31 396.733 1628.67 398.6C1625.03 400.467 1620.64 401.4 1615.51 401.4ZM1672.02 400.7C1672.02 400.7 1672.02 399.58 1672.02 397.34C1672.11 395.007 1672.16 391.927 1672.16 388.1C1672.25 384.273 1672.3 379.98 1672.3 375.22C1672.3 370.367 1672.3 365.373 1672.3 360.24C1672.39 355.013 1672.44 350.02 1672.44 345.26C1672.44 339.287 1672.39 333.687 1672.3 328.46C1672.3 323.233 1672.25 318.66 1672.16 314.74C1672.16 310.82 1672.11 307.74 1672.02 305.5C1672.02 303.26 1672.02 302.14 1672.02 302.14L1682.8 303.4C1682.8 303.4 1682.75 304.333 1682.66 306.2C1682.66 307.973 1682.66 310.353 1682.66 313.34C1682.66 316.327 1682.61 319.687 1682.52 323.42C1682.52 327.06 1682.47 330.747 1682.38 334.48C1682.38 338.213 1682.38 341.713 1682.38 344.98C1682.38 348.247 1682.38 352.213 1682.38 356.88C1682.47 361.453 1682.52 366.213 1682.52 371.16C1682.61 376.013 1682.66 380.587 1682.66 384.88C1682.75 389.173 1682.8 392.673 1682.8 395.38C1682.89 397.993 1682.94 399.3 1682.94 399.3L1672.02 400.7ZM1672.02 400.7L1678.18 390.76L1713.74 391.46V400L1672.02 400.7ZM1677.48 371.58V362.06L1713.32 362.48L1713.04 371.02L1677.48 371.58ZM1676.5 312.5L1672.02 302.14L1712.06 302.98V312.36L1676.5 312.5ZM1720.4 363.74L1721.24 355.06C1721.24 355.06 1721.7 355.107 1722.64 355.2C1723.57 355.2 1724.83 355.247 1726.42 355.34C1728 355.34 1729.78 355.387 1731.74 355.48C1733.79 355.48 1735.89 355.48 1738.04 355.48C1740.18 355.48 1742.24 355.48 1744.2 355.48C1746.25 355.48 1748.07 355.433 1749.66 355.34C1751.24 355.247 1752.5 355.2 1753.44 355.2C1754.37 355.107 1754.84 355.06 1754.84 355.06L1755.26 363.74C1755.26 363.74 1754.7 363.74 1753.58 363.74C1752.46 363.647 1750.96 363.6 1749.1 363.6C1747.32 363.6 1745.36 363.6 1743.22 363.6C1741.16 363.507 1739.16 363.46 1737.2 363.46C1735.14 363.46 1733.09 363.507 1731.04 363.6C1729.08 363.6 1727.3 363.6 1725.72 363.6C1724.13 363.6 1722.82 363.647 1721.8 363.74C1720.86 363.74 1720.4 363.74 1720.4 363.74ZM1786.78 401.4C1782.39 401.4 1778.66 400.793 1775.58 399.58C1772.59 398.273 1770.16 396.547 1768.3 394.4C1766.52 392.253 1765.22 389.78 1764.38 386.98C1763.54 384.18 1763.12 381.24 1763.12 378.16C1763.12 376.76 1763.16 375.36 1763.26 373.96C1763.44 372.56 1763.68 371.113 1763.96 369.62H1773.48C1773.29 371.113 1773.1 372.607 1772.92 374.1C1772.82 375.593 1772.78 376.993 1772.78 378.3C1772.78 381.007 1773.1 383.48 1773.76 385.72C1774.5 387.867 1775.86 389.593 1777.82 390.9C1779.78 392.207 1782.58 392.86 1786.22 392.86C1789.95 392.86 1792.89 392.253 1795.04 391.04C1797.18 389.827 1798.72 388.24 1799.66 386.28C1800.68 384.32 1801.2 382.173 1801.2 379.84C1801.2 377.413 1800.64 375.313 1799.52 373.54C1798.49 371.767 1797.09 370.133 1795.32 368.64C1793.54 367.147 1791.54 365.7 1789.3 364.3C1787.06 362.9 1784.77 361.453 1782.44 359.96C1780.01 358.373 1777.63 356.647 1775.3 354.78C1773.06 352.913 1771 350.767 1769.14 348.34C1767.27 345.82 1765.78 342.927 1764.66 339.66C1763.54 336.3 1762.98 332.473 1762.98 328.18C1762.98 322.953 1763.96 318.333 1765.92 314.32C1767.97 310.307 1770.86 307.18 1774.6 304.94C1778.33 302.607 1782.76 301.44 1787.9 301.44C1794.43 301.44 1799.38 302.793 1802.74 305.5C1806.19 308.113 1808.52 311.52 1809.74 315.72C1811.04 319.92 1811.7 324.353 1811.7 329.02C1811.7 330.887 1811.6 332.753 1811.42 334.62C1811.32 336.393 1811.18 338.167 1811 339.94C1810.81 341.62 1810.62 343.253 1810.44 344.84H1800.22C1800.59 342.413 1800.92 339.847 1801.2 337.14C1801.48 334.433 1801.62 331.727 1801.62 329.02C1801.62 325.66 1801.24 322.58 1800.5 319.78C1799.75 316.887 1798.35 314.6 1796.3 312.92C1794.34 311.147 1791.44 310.26 1787.62 310.26C1784.91 310.26 1782.62 310.773 1780.76 311.8C1778.89 312.733 1777.4 314.087 1776.28 315.86C1775.16 317.54 1774.32 319.5 1773.76 321.74C1773.29 323.887 1773.06 326.173 1773.06 328.6C1773.06 332.613 1773.76 336.067 1775.16 338.96C1776.56 341.76 1778.42 344.233 1780.76 346.38C1783.09 348.433 1785.61 350.347 1788.32 352.12C1791.02 353.8 1793.73 355.48 1796.44 357.16C1799.14 358.84 1801.62 360.66 1803.86 362.62C1806.19 364.58 1808.01 366.867 1809.32 369.48C1810.72 372.093 1811.42 375.22 1811.42 378.86C1811.42 383.34 1810.39 387.307 1808.34 390.76C1806.38 394.12 1803.58 396.733 1799.94 398.6C1796.3 400.467 1791.91 401.4 1786.78 401.4ZM1855.08 402.52C1855.08 402.52 1855.08 401.54 1855.08 399.58C1855.17 397.527 1855.26 394.867 1855.36 391.6C1855.45 388.24 1855.54 384.553 1855.64 380.54C1855.82 376.433 1855.96 372.28 1856.06 368.08C1856.15 363.88 1856.2 359.913 1856.2 356.18C1856.29 352.447 1856.34 349.273 1856.34 346.66C1856.34 343.393 1856.29 339.8 1856.2 335.88C1856.2 331.96 1856.15 328.087 1856.06 324.26C1856.06 320.34 1856.01 316.793 1855.92 313.62C1855.92 310.353 1855.87 307.74 1855.78 305.78C1855.78 303.82 1855.78 302.84 1855.78 302.84L1867.54 300.88C1867.54 300.88 1867.44 302.14 1867.26 304.66C1867.16 307.087 1867.02 310.447 1866.84 314.74C1866.74 318.94 1866.6 323.793 1866.42 329.3C1866.32 334.713 1866.28 340.407 1866.28 346.38C1866.28 351.14 1866.28 356.087 1866.28 361.22C1866.37 366.353 1866.46 371.3 1866.56 376.06C1866.65 380.727 1866.7 384.973 1866.7 388.8C1866.79 392.533 1866.84 395.52 1866.84 397.76C1866.93 400 1866.98 401.12 1866.98 401.12L1855.08 402.52ZM1826.1 370.32V360.38L1861.8 361.36V369.76L1826.1 370.32ZM1819.38 401.12C1819.38 401.12 1819.42 399.627 1819.52 396.64C1819.61 393.653 1819.66 389.687 1819.66 384.74C1819.75 379.793 1819.84 374.38 1819.94 368.5C1820.03 362.527 1820.08 356.553 1820.08 350.58C1820.08 344.607 1819.98 338.587 1819.8 332.52C1819.7 326.36 1819.56 320.76 1819.38 315.72C1819.28 310.587 1819.14 306.48 1818.96 303.4C1818.86 300.227 1818.82 298.64 1818.82 298.64L1830.58 296.68C1830.58 296.68 1830.53 298.033 1830.44 300.74C1830.44 303.353 1830.39 306.807 1830.3 311.1C1830.3 315.3 1830.25 319.873 1830.16 324.82C1830.16 329.673 1830.11 334.387 1830.02 338.96C1830.02 343.533 1830.02 347.453 1830.02 350.72C1830.02 353.987 1830.02 357.767 1830.02 362.06C1830.11 366.26 1830.2 370.553 1830.3 374.94C1830.39 379.327 1830.44 383.387 1830.44 387.12C1830.53 390.853 1830.58 393.887 1830.58 396.22C1830.67 398.46 1830.72 399.58 1830.72 399.58L1819.38 401.12ZM1900.95 400.7C1896.38 400.7 1892.6 399.953 1889.61 398.46C1886.72 396.873 1884.48 394.587 1882.89 391.6C1881.31 388.52 1880.14 384.693 1879.39 380.12C1879.02 377.507 1878.69 374.66 1878.41 371.58C1878.23 368.407 1878.09 365.047 1877.99 361.5C1877.99 357.86 1877.99 354.033 1877.99 350.02C1877.99 346.94 1878.04 344 1878.13 341.2C1878.23 338.4 1878.37 335.74 1878.55 333.22C1878.74 330.7 1878.97 328.367 1879.25 326.22C1879.63 323.98 1880.05 321.88 1880.51 319.92C1882.01 313.853 1884.53 309.233 1888.07 306.06C1891.62 302.887 1896.75 301.3 1903.47 301.3C1909.82 301.3 1914.58 302.933 1917.75 306.2C1920.93 309.467 1923.12 314.18 1924.33 320.34C1925.08 324.26 1925.55 328.74 1925.73 333.78C1926.01 338.727 1926.15 344.233 1926.15 350.3C1926.15 354.873 1926.06 359.167 1925.87 363.18C1925.78 367.1 1925.5 370.74 1925.03 374.1C1924.66 377.46 1924.1 380.493 1923.35 383.2C1922.33 387.027 1920.88 390.247 1919.01 392.86C1917.15 395.473 1914.72 397.433 1911.73 398.74C1908.84 400.047 1905.25 400.7 1900.95 400.7ZM1901.37 392.16C1904.17 392.16 1906.46 391.553 1908.23 390.34C1910.01 389.033 1911.41 387.167 1912.43 384.74C1913.46 382.313 1914.21 379.373 1914.67 375.92C1915.05 373.587 1915.28 371.067 1915.37 368.36C1915.47 365.56 1915.51 362.62 1915.51 359.54C1915.61 356.367 1915.65 353.053 1915.65 349.6C1915.65 343.813 1915.61 338.633 1915.51 334.06C1915.42 329.393 1915.09 325.427 1914.53 322.16C1914.07 319.36 1913.37 317.027 1912.43 315.16C1911.5 313.2 1910.24 311.753 1908.65 310.82C1907.07 309.887 1905.06 309.42 1902.63 309.42C1900.11 309.42 1898.01 309.98 1896.33 311.1C1894.65 312.127 1893.3 313.667 1892.27 315.72C1891.25 317.773 1890.45 320.293 1889.89 323.28C1889.52 325.053 1889.24 327.013 1889.05 329.16C1888.87 331.307 1888.73 333.593 1888.63 336.02C1888.54 338.353 1888.45 340.827 1888.35 343.44C1888.35 346.053 1888.35 348.807 1888.35 351.7C1888.35 356.833 1888.35 361.453 1888.35 365.56C1888.45 369.667 1888.68 373.353 1889.05 376.62C1889.43 379.98 1890.03 382.827 1890.87 385.16C1891.81 387.493 1893.11 389.267 1894.79 390.48C1896.47 391.6 1898.67 392.16 1901.37 392.16ZM1944.07 370.46L1943.51 361.36C1948.18 361.36 1952.28 361.08 1955.83 360.52C1959.38 359.867 1962.36 358.7 1964.79 357.02C1967.22 355.247 1969.04 352.727 1970.25 349.46C1971.56 346.1 1972.21 341.76 1972.21 336.44C1972.21 329.253 1971.65 323.653 1970.53 319.64C1969.41 315.627 1967.4 312.827 1964.51 311.24C1961.62 309.56 1957.56 308.72 1952.33 308.72C1951.12 308.72 1949.86 308.767 1948.55 308.86C1947.24 308.86 1945.84 308.953 1944.35 309.14C1942.95 309.233 1941.41 309.373 1939.73 309.56L1936.65 300.6C1938.33 300.507 1939.92 300.413 1941.41 300.32C1942.9 300.227 1944.35 300.18 1945.75 300.18C1947.24 300.087 1948.64 300.04 1949.95 300.04C1957.6 300.04 1963.76 301.02 1968.43 302.98C1973.1 304.847 1976.5 308.393 1978.65 313.62C1980.89 318.753 1982.01 326.22 1982.01 336.02C1982.01 344.7 1980.47 351.56 1977.39 356.6C1974.31 361.64 1969.92 365.233 1964.23 367.38C1958.54 369.433 1951.82 370.46 1944.07 370.46ZM1936.51 400.84C1936.6 396.92 1936.7 392.113 1936.79 386.42C1936.88 380.727 1936.93 374.707 1936.93 368.36C1937.02 361.92 1937.07 355.807 1937.07 350.02C1937.07 344.14 1937.02 338.12 1936.93 331.96C1936.93 325.707 1936.88 319.827 1936.79 314.32C1936.79 308.813 1936.74 304.24 1936.65 300.6L1947.85 301.58C1947.76 304.193 1947.66 307.133 1947.57 310.4C1947.57 313.573 1947.52 316.887 1947.43 320.34C1947.34 323.793 1947.24 327.247 1947.15 330.7C1947.15 334.153 1947.1 337.513 1947.01 340.78C1947.01 344.047 1947.01 347.033 1947.01 349.74C1947.01 352.073 1947.01 354.873 1947.01 358.14C1947.01 361.313 1947.01 364.767 1947.01 368.5C1947.1 372.14 1947.15 375.873 1947.15 379.7C1947.24 383.433 1947.29 387.073 1947.29 390.62C1947.38 394.073 1947.48 397.293 1947.57 400.28L1936.51 400.84ZM2012.24 302.14L2023.58 301.86C2023.58 301.86 2023.54 303.12 2023.44 305.64C2023.35 308.16 2023.21 311.427 2023.02 315.44C2022.93 319.453 2022.79 323.84 2022.6 328.6C2022.51 333.267 2022.42 337.84 2022.32 342.32C2022.23 346.707 2022.18 350.533 2022.18 353.8C2022.18 357.067 2022.18 360.753 2022.18 364.86C2022.28 368.967 2022.37 373.073 2022.46 377.18C2022.56 381.287 2022.6 385.113 2022.6 388.66C2022.7 392.113 2022.74 394.913 2022.74 397.06C2022.84 399.113 2022.88 400.14 2022.88 400.14L2011.68 399.86C2011.68 399.86 2011.68 399.067 2011.68 397.48C2011.78 395.8 2011.82 393.513 2011.82 390.62C2011.92 387.727 2012.01 384.367 2012.1 380.54C2012.2 376.713 2012.24 372.56 2012.24 368.08C2012.34 363.507 2012.38 358.84 2012.38 354.08C2012.38 348.48 2012.38 342.927 2012.38 337.42C2012.38 331.913 2012.38 326.78 2012.38 322.02C2012.38 317.167 2012.38 313.013 2012.38 309.56C2012.38 306.107 2012.34 303.633 2012.24 302.14ZM2055.36 401.4C2051.44 401.4 2047.99 400.84 2045 399.72C2042.11 398.6 2039.64 397.013 2037.58 394.96C2035.62 392.907 2034.13 390.433 2033.1 387.54C2032.08 384.647 2031.56 381.38 2031.56 377.74C2031.56 376.06 2031.66 374.38 2031.84 372.7C2032.12 370.927 2032.45 369.107 2032.82 367.24H2042.34C2041.97 369.2 2041.69 371.067 2041.5 372.84C2041.32 374.52 2041.22 376.153 2041.22 377.74C2041.22 382.593 2042.25 386.327 2044.3 388.94C2046.45 391.553 2049.95 392.86 2054.8 392.86C2058.54 392.86 2061.48 392.207 2063.62 390.9C2065.77 389.593 2067.31 387.913 2068.24 385.86C2069.27 383.807 2069.78 381.613 2069.78 379.28C2069.78 376.853 2069.22 374.613 2068.1 372.56C2067.08 370.507 2065.68 368.593 2063.9 366.82C2062.13 365.047 2060.12 363.367 2057.88 361.78C2055.64 360.1 2053.36 358.513 2051.02 357.02C2048.6 355.433 2046.22 353.753 2043.88 351.98C2041.64 350.207 2039.59 348.153 2037.72 345.82C2035.86 343.393 2034.36 340.593 2033.24 337.42C2032.12 334.153 2031.56 330.327 2031.56 325.94C2031.56 321.087 2032.59 316.84 2034.64 313.2C2036.79 309.56 2039.73 306.713 2043.46 304.66C2047.29 302.513 2051.63 301.44 2056.48 301.44C2062.46 301.44 2067.17 302.56 2070.62 304.8C2074.08 307.04 2076.55 310.167 2078.04 314.18C2079.54 318.193 2080.28 322.907 2080.28 328.32C2080.28 329.44 2080.24 330.607 2080.14 331.82C2080.14 332.94 2080.1 334.153 2080 335.46C2079.91 336.673 2079.77 337.933 2079.58 339.24C2079.4 340.453 2079.21 341.713 2079.02 343.02H2068.8C2069.08 341.247 2069.32 339.567 2069.5 337.98C2069.69 336.3 2069.83 334.667 2069.92 333.08C2070.11 331.493 2070.2 330 2070.2 328.6C2070.2 324.96 2069.78 321.787 2068.94 319.08C2068.1 316.28 2066.66 314.133 2064.6 312.64C2062.55 311.053 2059.75 310.26 2056.2 310.26C2053.68 310.26 2051.49 310.68 2049.62 311.52C2047.76 312.36 2046.22 313.527 2045 315.02C2043.88 316.513 2043.04 318.24 2042.48 320.2C2041.92 322.16 2041.64 324.213 2041.64 326.36C2041.64 330.373 2042.34 333.733 2043.74 336.44C2045.14 339.053 2047.01 341.34 2049.34 343.3C2051.68 345.26 2054.2 347.127 2056.9 348.9C2059.61 350.58 2062.32 352.4 2065.02 354.36C2067.73 356.32 2070.2 358.467 2072.44 360.8C2074.78 363.04 2076.6 365.607 2077.9 368.5C2079.3 371.393 2080 374.66 2080 378.3C2080 382.78 2078.98 386.793 2076.92 390.34C2074.96 393.793 2072.16 396.5 2068.52 398.46C2064.88 400.42 2060.5 401.4 2055.36 401.4ZM2104.87 401.12C2105.89 397.013 2107.01 392.16 2108.23 386.56C2109.44 380.867 2110.7 374.847 2112.01 368.5C2113.31 362.153 2114.62 355.947 2115.93 349.88C2117.23 343.72 2118.49 337.793 2119.71 332.1C2120.92 326.313 2122.04 320.9 2123.07 315.86C2124.09 310.82 2124.98 306.387 2125.73 302.56L2142.25 301.44C2142.9 305.267 2143.69 309.793 2144.63 315.02C2145.65 320.153 2146.73 325.707 2147.85 331.68C2149.06 337.653 2150.23 343.767 2151.35 350.02C2152.56 356.18 2153.73 362.2 2154.85 368.08C2156.06 373.867 2157.27 379.327 2158.49 384.46C2159.7 389.593 2160.82 394.307 2161.85 398.6L2151.21 398.88C2150.27 393.653 2149.29 388.473 2148.27 383.34C2147.24 378.113 2146.21 372.887 2145.19 367.66C2144.25 362.433 2143.27 357.253 2142.25 352.12C2141.59 348.76 2140.89 345.353 2140.15 341.9C2139.4 338.447 2138.65 335.04 2137.91 331.68C2137.25 328.227 2136.55 324.82 2135.81 321.46C2135.06 318.1 2134.36 314.833 2133.71 311.66C2132.77 315.767 2131.75 320.013 2130.63 324.4C2129.6 328.787 2128.57 333.267 2127.55 337.84C2126.61 342.32 2125.73 346.753 2124.89 351.14C2123.86 356.74 2122.74 362.387 2121.53 368.08C2120.41 373.773 2119.29 379.373 2118.17 384.88C2117.05 390.293 2115.93 395.473 2114.81 400.42L2104.87 401.12ZM2115.23 377.74V369.9L2151.07 367.8V377.46L2115.23 377.74ZM1424.4 596.4C1420.01 596.4 1416.28 595.793 1413.2 594.58C1410.21 593.273 1407.79 591.547 1405.92 589.4C1404.15 587.253 1402.84 584.78 1402 581.98C1401.16 579.18 1400.74 576.24 1400.74 573.16C1400.74 571.76 1400.79 570.36 1400.88 568.96C1401.07 567.56 1401.3 566.113 1401.58 564.62H1411.1C1410.91 566.113 1410.73 567.607 1410.54 569.1C1410.45 570.593 1410.4 571.993 1410.4 573.3C1410.4 576.007 1410.73 578.48 1411.38 580.72C1412.13 582.867 1413.48 584.593 1415.44 585.9C1417.4 587.207 1420.2 587.86 1423.84 587.86C1427.57 587.86 1430.51 587.253 1432.66 586.04C1434.81 584.827 1436.35 583.24 1437.28 581.28C1438.31 579.32 1438.82 577.173 1438.82 574.84C1438.82 572.413 1438.26 570.313 1437.14 568.54C1436.11 566.767 1434.71 565.133 1432.94 563.64C1431.17 562.147 1429.16 560.7 1426.92 559.3C1424.68 557.9 1422.39 556.453 1420.06 554.96C1417.63 553.373 1415.25 551.647 1412.92 549.78C1410.68 547.913 1408.63 545.767 1406.76 543.34C1404.89 540.82 1403.4 537.927 1402.28 534.66C1401.16 531.3 1400.6 527.473 1400.6 523.18C1400.6 517.953 1401.58 513.333 1403.54 509.32C1405.59 505.307 1408.49 502.18 1412.22 499.94C1415.95 497.607 1420.39 496.44 1425.52 496.44C1432.05 496.44 1437 497.793 1440.36 500.5C1443.81 503.113 1446.15 506.52 1447.36 510.72C1448.67 514.92 1449.32 519.353 1449.32 524.02C1449.32 525.887 1449.23 527.753 1449.04 529.62C1448.95 531.393 1448.81 533.167 1448.62 534.94C1448.43 536.62 1448.25 538.253 1448.06 539.84H1437.84C1438.21 537.413 1438.54 534.847 1438.82 532.14C1439.1 529.433 1439.24 526.727 1439.24 524.02C1439.24 520.66 1438.87 517.58 1438.12 514.78C1437.37 511.887 1435.97 509.6 1433.92 507.92C1431.96 506.147 1429.07 505.26 1425.24 505.26C1422.53 505.26 1420.25 505.773 1418.38 506.8C1416.51 507.733 1415.02 509.087 1413.9 510.86C1412.78 512.54 1411.94 514.5 1411.38 516.74C1410.91 518.887 1410.68 521.173 1410.68 523.6C1410.68 527.613 1411.38 531.067 1412.78 533.96C1414.18 536.76 1416.05 539.233 1418.38 541.38C1420.71 543.433 1423.23 545.347 1425.94 547.12C1428.65 548.8 1431.35 550.48 1434.06 552.16C1436.77 553.84 1439.24 555.66 1441.48 557.62C1443.81 559.58 1445.63 561.867 1446.94 564.48C1448.34 567.093 1449.04 570.22 1449.04 573.86C1449.04 578.34 1448.01 582.307 1445.96 585.76C1444 589.12 1441.2 591.733 1437.56 593.6C1433.92 595.467 1429.53 596.4 1424.4 596.4ZM1456.44 496.44L1472.4 494.62C1473.15 497.7 1474.04 501.2 1475.06 505.12C1476.09 509.04 1477.21 513.193 1478.42 517.58C1479.64 521.967 1480.85 526.447 1482.06 531.02C1483.28 535.593 1484.49 540.027 1485.7 544.32C1487.1 548.987 1488.46 553.607 1489.76 558.18C1491.07 562.753 1492.28 566.953 1493.4 570.78C1494.52 574.607 1495.5 577.873 1496.34 580.58C1496.34 576.753 1496.3 572.787 1496.2 568.68C1496.2 564.48 1496.16 560.187 1496.06 555.8C1496.06 551.413 1496.06 547.027 1496.06 542.64C1496.06 538.813 1496.02 534.8 1495.92 530.6C1495.92 526.307 1495.92 521.92 1495.92 517.44C1495.92 512.867 1495.88 508.387 1495.78 504C1495.78 499.52 1495.74 495.227 1495.64 491.12L1506.14 492.1C1506.05 495.927 1505.91 500.64 1505.72 506.24C1505.63 511.84 1505.54 517.86 1505.44 524.3C1505.44 530.74 1505.44 537.087 1505.44 543.34C1505.44 547.82 1505.44 552.393 1505.44 557.06C1505.44 561.633 1505.44 566.16 1505.44 570.64C1505.54 575.027 1505.58 579.273 1505.58 583.38C1505.68 587.487 1505.77 591.267 1505.86 594.72L1490.32 595.84C1489.11 591.173 1487.71 586.04 1486.12 580.44C1484.63 574.747 1483.04 568.913 1481.36 562.94C1479.78 556.873 1478.14 550.993 1476.46 545.3C1475.53 542.127 1474.6 539.047 1473.66 536.06C1472.82 532.98 1471.98 530.04 1471.14 527.24C1470.3 524.44 1469.46 521.78 1468.62 519.26C1467.88 516.647 1467.13 514.22 1466.38 511.98C1466.38 516.553 1466.38 521.827 1466.38 527.8C1466.48 533.773 1466.52 540.213 1466.52 547.12C1466.52 550.76 1466.52 554.633 1466.52 558.74C1466.62 562.847 1466.66 567.093 1466.66 571.48C1466.66 575.867 1466.66 580.3 1466.66 584.78C1466.76 589.26 1466.85 593.6 1466.94 597.8L1456.86 599.06C1456.96 594.86 1457 589.773 1457 583.8C1457 577.827 1457 571.573 1457 565.04C1457.1 558.413 1457.14 552.113 1457.14 546.14C1457.14 539.98 1457.1 533.913 1457 527.94C1457 521.873 1456.96 516.18 1456.86 510.86C1456.77 505.447 1456.63 500.64 1456.44 496.44ZM1556.75 595.84C1555.82 590.8 1554.79 585.62 1553.67 580.3C1552.55 574.887 1551.43 569.427 1550.31 563.92C1549.19 558.32 1548.03 552.72 1546.81 547.12C1546.07 543.573 1545.32 540.027 1544.57 536.48C1543.83 532.84 1543.08 529.293 1542.33 525.84C1541.68 522.293 1541.03 518.793 1540.37 515.34C1539.72 511.887 1539.07 508.48 1538.41 505.12L1531.55 496.72L1546.67 496.44C1547.14 499.333 1547.7 502.6 1548.35 506.24C1549.1 509.88 1549.85 513.847 1550.59 518.14C1551.43 522.34 1552.32 526.727 1553.25 531.3C1554.19 535.78 1555.12 540.353 1556.05 545.02C1557.36 551.18 1558.67 557.293 1559.97 563.36C1561.37 569.427 1562.68 575.167 1563.89 580.58C1565.2 585.993 1566.37 590.847 1567.39 595.14L1556.75 595.84ZM1520.49 572.46V562.8L1556.33 563.5V571.34L1520.49 572.46ZM1520.49 594.3L1510.69 594.16C1511.72 590.053 1512.79 585.34 1513.91 580.02C1515.13 574.7 1516.39 569.053 1517.69 563.08C1519 557.013 1520.31 550.947 1521.61 544.88C1523.01 538.72 1524.32 532.7 1525.53 526.82C1526.75 520.94 1527.87 515.433 1528.89 510.3C1529.92 505.073 1530.81 500.547 1531.55 496.72L1546.67 496.44L1539.25 505.96C1538.32 510.16 1537.34 514.5 1536.31 518.98C1535.38 523.46 1534.4 527.987 1533.37 532.56C1532.44 537.04 1531.51 541.567 1530.57 546.14C1529.45 551.74 1528.29 557.293 1527.07 562.8C1525.95 568.307 1524.83 573.72 1523.71 579.04C1522.69 584.267 1521.61 589.353 1520.49 594.3ZM1609.75 594.86C1606.67 590.753 1603.35 586.507 1599.81 582.12C1596.35 577.64 1592.76 573.16 1589.03 568.68C1585.39 564.2 1581.75 559.86 1578.11 555.66C1581.28 550.247 1584.41 544.787 1587.49 539.28C1590.66 533.68 1593.69 528.267 1596.59 523.04C1599.57 517.72 1602.23 512.82 1604.57 508.34C1606.99 503.86 1609.05 499.987 1610.73 496.72L1622.21 496.44C1620.43 499.24 1618.43 502.507 1616.19 506.24C1613.95 509.973 1611.57 513.94 1609.05 518.14C1606.53 522.34 1604.01 526.54 1601.49 530.74C1599.06 534.94 1596.73 538.953 1594.49 542.78C1592.34 546.607 1590.43 549.967 1588.75 552.86C1591.36 556.127 1594.02 559.487 1596.73 562.94C1599.53 566.393 1602.37 569.893 1605.27 573.44C1608.25 576.893 1611.24 580.393 1614.23 583.94C1617.21 587.393 1620.2 590.847 1623.19 594.3L1609.75 594.86ZM1571.95 595C1571.95 595 1571.95 593.927 1571.95 591.78C1572.04 589.633 1572.13 586.787 1572.23 583.24C1572.32 579.693 1572.41 575.727 1572.51 571.34C1572.6 566.953 1572.65 562.52 1572.65 558.04C1572.74 553.467 1572.79 549.173 1572.79 545.16C1572.79 540.12 1572.74 534.8 1572.65 529.2C1572.65 523.6 1572.6 518.327 1572.51 513.38C1572.51 508.433 1572.46 504.42 1572.37 501.34C1572.37 498.167 1572.37 496.58 1572.37 496.58L1583.43 496.72C1583.43 496.72 1583.38 497.747 1583.29 499.8C1583.29 501.76 1583.24 504.467 1583.15 507.92C1583.05 511.28 1582.96 515.06 1582.87 519.26C1582.77 523.46 1582.68 527.8 1582.59 532.28C1582.59 536.667 1582.59 540.913 1582.59 545.02C1582.59 549.033 1582.59 553.327 1582.59 557.9C1582.68 562.473 1582.73 566.953 1582.73 571.34C1582.82 575.727 1582.87 579.693 1582.87 583.24C1582.96 586.787 1583.01 589.633 1583.01 591.78C1583.1 593.927 1583.15 595 1583.15 595H1571.95ZM1624.3 595.7C1624.3 595.7 1624.3 594.58 1624.3 592.34C1624.39 590.007 1624.44 586.927 1624.44 583.1C1624.53 579.273 1624.58 574.98 1624.58 570.22C1624.58 565.367 1624.58 560.373 1624.58 555.24C1624.67 550.013 1624.72 545.02 1624.72 540.26C1624.72 534.287 1624.67 528.687 1624.58 523.46C1624.58 518.233 1624.53 513.66 1624.44 509.74C1624.44 505.82 1624.39 502.74 1624.3 500.5C1624.3 498.26 1624.3 497.14 1624.3 497.14L1635.08 498.4C1635.08 498.4 1635.03 499.333 1634.94 501.2C1634.94 502.973 1634.94 505.353 1634.94 508.34C1634.94 511.327 1634.89 514.687 1634.8 518.42C1634.8 522.06 1634.75 525.747 1634.66 529.48C1634.66 533.213 1634.66 536.713 1634.66 539.98C1634.66 543.247 1634.66 547.213 1634.66 551.88C1634.75 556.453 1634.8 561.213 1634.8 566.16C1634.89 571.013 1634.94 575.587 1634.94 579.88C1635.03 584.173 1635.08 587.673 1635.08 590.38C1635.17 592.993 1635.22 594.3 1635.22 594.3L1624.3 595.7ZM1624.3 595.7L1630.46 586.46H1666.58V595L1624.3 595.7ZM1629.76 561.4V551.88L1665.18 552.3L1663.78 560.84L1629.76 561.4ZM1628.78 506.8L1624.3 497.14L1664.34 497.98L1665.32 507.22L1628.78 506.8ZM1697.42 595.42C1697.42 595.42 1697.42 594.207 1697.42 591.78C1697.52 589.26 1697.61 585.853 1697.7 581.56C1697.8 577.267 1697.84 572.367 1697.84 566.86C1697.94 561.353 1697.98 555.613 1697.98 549.64C1697.98 543.667 1697.94 537.553 1697.84 531.3C1697.84 524.953 1697.8 519.12 1697.7 513.8C1697.7 508.387 1697.66 504.047 1697.56 500.78C1697.56 497.42 1697.56 495.74 1697.56 495.74L1708.2 497.14C1708.2 497.14 1708.16 498.447 1708.06 501.06C1708.06 503.58 1708.02 506.893 1707.92 511C1707.92 515.107 1707.88 519.587 1707.78 524.44C1707.78 529.2 1707.74 533.82 1707.64 538.3C1707.64 542.78 1707.64 546.653 1707.64 549.92C1707.64 553.187 1707.64 556.827 1707.64 560.84C1707.74 564.76 1707.78 568.727 1707.78 572.74C1707.88 576.753 1707.92 580.44 1707.92 583.8C1708.02 587.16 1708.06 589.867 1708.06 591.92C1708.16 593.973 1708.2 595 1708.2 595L1697.42 595.42ZM1703.16 564.48V554.96L1734.52 555.24L1735.5 563.22L1703.16 564.48ZM1703.58 505.68L1697.56 495.74L1734.66 497.28L1734.94 505.96L1703.58 505.68ZM1750.5 564.06L1749.94 554.96C1754.61 554.96 1758.71 554.68 1762.26 554.12C1765.81 553.467 1768.79 552.3 1771.22 550.62C1773.65 548.94 1775.47 546.513 1776.68 543.34C1777.99 540.073 1778.64 535.873 1778.64 530.74C1778.64 523.647 1778.03 518.187 1776.82 514.36C1775.7 510.44 1773.69 507.687 1770.8 506.1C1767.91 504.513 1763.89 503.72 1758.76 503.72C1756.99 503.72 1755.03 503.813 1752.88 504C1750.83 504.093 1748.59 504.28 1746.16 504.56L1743.08 495.6C1744.76 495.507 1746.35 495.413 1747.84 495.32C1749.33 495.227 1750.78 495.18 1752.18 495.18C1753.67 495.087 1755.07 495.04 1756.38 495.04C1763.94 495.04 1770.05 495.973 1774.72 497.84C1779.48 499.613 1782.93 503.067 1785.08 508.2C1787.32 513.24 1788.44 520.613 1788.44 530.32C1788.44 538.813 1786.9 545.533 1783.82 550.48C1780.74 555.333 1776.35 558.833 1770.66 560.98C1764.97 563.033 1758.25 564.06 1750.5 564.06ZM1742.94 595.84C1743.03 591.92 1743.13 587.113 1743.22 581.42C1743.31 575.727 1743.36 569.707 1743.36 563.36C1743.45 556.92 1743.5 550.807 1743.5 545.02C1743.5 539.14 1743.45 533.12 1743.36 526.96C1743.36 520.707 1743.31 514.827 1743.22 509.32C1743.22 503.813 1743.17 499.24 1743.08 495.6L1754.28 496.58C1754.19 499.193 1754.09 502.133 1754 505.4C1754 508.573 1753.95 511.887 1753.86 515.34C1753.77 518.793 1753.67 522.247 1753.58 525.7C1753.58 529.153 1753.53 532.513 1753.44 535.78C1753.44 539.047 1753.44 542.033 1753.44 544.74C1753.44 547.54 1753.44 551.04 1753.44 555.24C1753.53 559.44 1753.58 563.92 1753.58 568.68C1753.67 573.347 1753.72 578.013 1753.72 582.68C1753.81 587.253 1753.91 591.453 1754 595.28L1742.94 595.84ZM1780.6 595.84C1777.99 589.493 1775.19 583.147 1772.2 576.8C1769.21 570.453 1765.9 563.873 1762.26 557.06L1772.2 552.86C1775.09 559.673 1778.31 566.627 1781.86 573.72C1785.5 580.72 1789.42 587.953 1793.62 595.42L1780.6 595.84ZM1797.21 595.7C1797.21 595.7 1797.21 594.58 1797.21 592.34C1797.3 590.007 1797.35 586.927 1797.35 583.1C1797.44 579.273 1797.49 574.98 1797.49 570.22C1797.49 565.367 1797.49 560.373 1797.49 555.24C1797.58 550.013 1797.63 545.02 1797.63 540.26C1797.63 534.287 1797.58 528.687 1797.49 523.46C1797.49 518.233 1797.44 513.66 1797.35 509.74C1797.35 505.82 1797.3 502.74 1797.21 500.5C1797.21 498.26 1797.21 497.14 1797.21 497.14L1807.99 498.4C1807.99 498.4 1807.94 499.333 1807.85 501.2C1807.85 502.973 1807.85 505.353 1807.85 508.34C1807.85 511.327 1807.8 514.687 1807.71 518.42C1807.71 522.06 1807.66 525.747 1807.57 529.48C1807.57 533.213 1807.57 536.713 1807.57 539.98C1807.57 543.247 1807.57 547.213 1807.57 551.88C1807.66 556.453 1807.71 561.213 1807.71 566.16C1807.8 571.013 1807.85 575.587 1807.85 579.88C1807.94 584.173 1807.99 587.673 1807.99 590.38C1808.08 592.993 1808.13 594.3 1808.13 594.3L1797.21 595.7ZM1797.21 595.7L1803.37 585.76L1838.93 586.46V595L1797.21 595.7ZM1802.67 566.58V557.06L1838.51 557.48L1838.23 566.02L1802.67 566.58ZM1801.69 507.5L1797.21 497.14L1837.25 497.98V507.36L1801.69 507.5ZM1845.87 595.7C1845.87 595.7 1845.87 594.58 1845.87 592.34C1845.96 590.007 1846.01 586.927 1846.01 583.1C1846.1 579.273 1846.15 574.98 1846.15 570.22C1846.15 565.367 1846.15 560.373 1846.15 555.24C1846.24 550.013 1846.29 545.02 1846.29 540.26C1846.29 534.287 1846.24 528.687 1846.15 523.46C1846.15 518.233 1846.1 513.66 1846.01 509.74C1846.01 505.82 1845.96 502.74 1845.87 500.5C1845.87 498.26 1845.87 497.14 1845.87 497.14L1856.65 498.4C1856.65 498.4 1856.6 499.333 1856.51 501.2C1856.51 502.973 1856.51 505.353 1856.51 508.34C1856.51 511.327 1856.46 514.687 1856.37 518.42C1856.37 522.06 1856.32 525.747 1856.23 529.48C1856.23 533.213 1856.23 536.713 1856.23 539.98C1856.23 543.247 1856.23 547.213 1856.23 551.88C1856.32 556.453 1856.37 561.213 1856.37 566.16C1856.46 571.013 1856.51 575.587 1856.51 579.88C1856.6 584.173 1856.65 587.673 1856.65 590.38C1856.74 592.993 1856.79 594.3 1856.79 594.3L1845.87 595.7ZM1845.87 595.7L1852.03 586.46H1888.15V595L1845.87 595.7ZM1851.33 561.4V551.88L1886.75 552.3L1885.35 560.84L1851.33 561.4ZM1850.35 506.8L1845.87 497.14L1885.91 497.98L1886.89 507.22L1850.35 506.8ZM1913.81 497.98C1915.02 498.073 1916.52 498.167 1918.29 498.26C1920.06 498.26 1921.98 498.26 1924.03 498.26C1926.18 498.26 1928.37 498.26 1930.61 498.26C1932.85 498.167 1935 498.12 1937.05 498.12C1939.76 498.027 1942.18 497.98 1944.33 497.98C1946.57 497.887 1948.81 497.84 1951.05 497.84C1953.38 497.747 1955.86 497.7 1958.47 497.7L1958.89 507.78C1956.84 511.98 1954.74 516.32 1952.59 520.8C1950.44 525.28 1948.25 529.853 1946.01 534.52C1943.86 539.187 1941.67 543.947 1939.43 548.8C1937.56 552.813 1935.7 556.873 1933.83 560.98C1931.96 564.993 1930.1 569.053 1928.23 573.16C1926.46 577.267 1924.68 581.327 1922.91 585.34C1924.68 585.34 1926.5 585.34 1928.37 585.34C1930.24 585.34 1932.06 585.34 1933.83 585.34C1935.7 585.34 1937.33 585.34 1938.73 585.34C1941.44 585.247 1943.86 585.2 1946.01 585.2C1948.25 585.107 1950.44 585.06 1952.59 585.06C1954.83 584.967 1957.3 584.92 1960.01 584.92V595C1957.86 595 1955.76 595 1953.71 595C1951.75 594.907 1949.79 594.86 1947.83 594.86C1945.96 594.767 1944.05 594.72 1942.09 594.72C1940.13 594.627 1938.03 594.58 1935.79 594.58C1933.27 594.58 1930.61 594.627 1927.81 594.72C1925.01 594.72 1922.4 594.72 1919.97 594.72C1917.64 594.72 1915.72 594.767 1914.23 594.86C1912.74 594.86 1911.99 594.86 1911.99 594.86L1911.43 585.34C1914.42 579.087 1917.45 572.647 1920.53 566.02C1923.7 559.393 1926.74 552.86 1929.63 546.42C1932.9 539.047 1936.07 532 1939.15 525.28C1942.23 518.56 1944.89 512.633 1947.13 507.5C1945.73 507.5 1944.28 507.5 1942.79 507.5C1941.3 507.407 1939.76 507.36 1938.17 507.36C1936.68 507.36 1935.23 507.36 1933.83 507.36C1931.31 507.36 1928.84 507.407 1926.41 507.5C1924.08 507.5 1921.93 507.547 1919.97 507.64C1918.01 507.64 1916.47 507.687 1915.35 507.78C1914.23 507.78 1913.67 507.78 1913.67 507.78L1913.81 497.98ZM1985.95 595.7C1981.47 595.7 1977.74 594.86 1974.75 593.18C1971.86 591.5 1969.52 589.12 1967.75 586.04C1965.98 582.867 1964.62 579.133 1963.69 574.84C1963.13 572.04 1962.71 569.1 1962.43 566.02C1962.15 562.847 1961.92 559.487 1961.73 555.94C1961.64 552.393 1961.59 548.753 1961.59 545.02C1961.59 542.687 1961.64 540.353 1961.73 538.02C1961.82 535.687 1961.96 533.4 1962.15 531.16C1962.34 528.827 1962.57 526.587 1962.85 524.44C1963.22 522.2 1963.64 520.053 1964.11 518C1965.7 511.747 1968.36 506.567 1972.09 502.46C1975.92 498.353 1981.38 496.3 1988.47 496.3C1993.04 496.3 1996.78 497.28 1999.67 499.24C2002.56 501.107 2004.85 503.72 2006.53 507.08C2008.3 510.347 2009.61 514.127 2010.45 518.42C2011.29 522.433 2011.8 526.773 2011.99 531.44C2012.27 536.013 2012.41 540.633 2012.41 545.3C2012.41 549.407 2012.27 553.42 2011.99 557.34C2011.8 561.167 2011.43 564.807 2010.87 568.26C2010.4 571.713 2009.7 574.933 2008.77 577.92C2007 583.333 2004.34 587.673 2000.79 590.94C1997.24 594.113 1992.3 595.7 1985.95 595.7ZM1986.37 587.16C1989.08 587.16 1991.32 586.46 1993.09 585.06C1994.86 583.66 1996.31 581.7 1997.43 579.18C1998.64 576.567 1999.58 573.533 2000.23 570.08C2000.88 566.533 2001.3 562.613 2001.49 558.32C2001.77 554.027 2001.91 549.453 2001.91 544.6C2001.91 540.493 2001.82 536.62 2001.63 532.98C2001.54 529.34 2001.3 526.027 2000.93 523.04C2000.18 517.253 1998.78 512.727 1996.73 509.46C1994.77 506.1 1991.74 504.42 1987.63 504.42C1983.52 504.42 1980.35 506.147 1978.11 509.6C1975.96 512.96 1974.42 517.393 1973.49 522.9C1973.21 524.58 1972.93 526.4 1972.65 528.36C1972.46 530.227 1972.32 532.187 1972.23 534.24C1972.14 536.2 1972.04 538.253 1971.95 540.4C1971.95 542.453 1971.95 544.553 1971.95 546.7C1971.95 551.46 1972.04 555.94 1972.23 560.14C1972.42 564.247 1972.79 567.98 1973.35 571.34C1973.91 574.607 1974.7 577.453 1975.73 579.88C1976.85 582.213 1978.25 584.033 1979.93 585.34C1981.7 586.553 1983.85 587.16 1986.37 587.16ZM2021.51 496.44L2037.47 494.62C2038.21 497.7 2039.1 501.2 2040.13 505.12C2041.15 509.04 2042.27 513.193 2043.49 517.58C2044.7 521.967 2045.91 526.447 2047.13 531.02C2048.34 535.593 2049.55 540.027 2050.77 544.32C2052.17 548.987 2053.52 553.607 2054.83 558.18C2056.13 562.753 2057.35 566.953 2058.47 570.78C2059.59 574.607 2060.57 577.873 2061.41 580.58C2061.41 576.753 2061.36 572.787 2061.27 568.68C2061.27 564.48 2061.22 560.187 2061.13 555.8C2061.13 551.413 2061.13 547.027 2061.13 542.64C2061.13 538.813 2061.08 534.8 2060.99 530.6C2060.99 526.307 2060.99 521.92 2060.99 517.44C2060.99 512.867 2060.94 508.387 2060.85 504C2060.85 499.52 2060.8 495.227 2060.71 491.12L2071.21 492.1C2071.11 495.927 2070.97 500.64 2070.79 506.24C2070.69 511.84 2070.6 517.86 2070.51 524.3C2070.51 530.74 2070.51 537.087 2070.51 543.34C2070.51 547.82 2070.51 552.393 2070.51 557.06C2070.51 561.633 2070.51 566.16 2070.51 570.64C2070.6 575.027 2070.65 579.273 2070.65 583.38C2070.74 587.487 2070.83 591.267 2070.93 594.72L2055.39 595.84C2054.17 591.173 2052.77 586.04 2051.19 580.44C2049.69 574.747 2048.11 568.913 2046.43 562.94C2044.84 556.873 2043.21 550.993 2041.53 545.3C2040.59 542.127 2039.66 539.047 2038.73 536.06C2037.89 532.98 2037.05 530.04 2036.21 527.24C2035.37 524.44 2034.53 521.78 2033.69 519.26C2032.94 516.647 2032.19 514.22 2031.45 511.98C2031.45 516.553 2031.45 521.827 2031.45 527.8C2031.54 533.773 2031.59 540.213 2031.59 547.12C2031.59 550.76 2031.59 554.633 2031.59 558.74C2031.68 562.847 2031.73 567.093 2031.73 571.48C2031.73 575.867 2031.73 580.3 2031.73 584.78C2031.82 589.26 2031.91 593.6 2032.01 597.8L2021.93 599.06C2022.02 594.86 2022.07 589.773 2022.07 583.8C2022.07 577.827 2022.07 571.573 2022.07 565.04C2022.16 558.413 2022.21 552.113 2022.21 546.14C2022.21 539.98 2022.16 533.913 2022.07 527.94C2022.07 521.873 2022.02 516.18 2021.93 510.86C2021.83 505.447 2021.69 500.64 2021.51 496.44ZM2082.2 595.7C2082.2 595.7 2082.2 594.58 2082.2 592.34C2082.29 590.007 2082.34 586.927 2082.34 583.1C2082.43 579.273 2082.48 574.98 2082.48 570.22C2082.48 565.367 2082.48 560.373 2082.48 555.24C2082.57 550.013 2082.62 545.02 2082.62 540.26C2082.62 534.287 2082.57 528.687 2082.48 523.46C2082.48 518.233 2082.43 513.66 2082.34 509.74C2082.34 505.82 2082.29 502.74 2082.2 500.5C2082.2 498.26 2082.2 497.14 2082.2 497.14L2092.98 498.4C2092.98 498.4 2092.93 499.333 2092.84 501.2C2092.84 502.973 2092.84 505.353 2092.84 508.34C2092.84 511.327 2092.79 514.687 2092.7 518.42C2092.7 522.06 2092.65 525.747 2092.56 529.48C2092.56 533.213 2092.56 536.713 2092.56 539.98C2092.56 543.247 2092.56 547.213 2092.56 551.88C2092.65 556.453 2092.7 561.213 2092.7 566.16C2092.79 571.013 2092.84 575.587 2092.84 579.88C2092.93 584.173 2092.98 587.673 2092.98 590.38C2093.07 592.993 2093.12 594.3 2093.12 594.3L2082.2 595.7ZM2082.2 595.7L2088.36 586.46H2124.48V595L2082.2 595.7ZM2087.66 561.4V551.88L2123.08 552.3L2121.68 560.84L2087.66 561.4ZM2086.68 506.8L2082.2 497.14L2122.24 497.98L2123.22 507.22L2086.68 506.8ZM2135.9 561.68C2135.9 561.68 2135.85 560.56 2135.76 558.32C2135.76 556.08 2135.71 553.047 2135.62 549.22C2135.53 545.3 2135.43 540.82 2135.34 535.78C2135.25 531.953 2135.11 527.8 2134.92 523.32C2134.83 518.747 2134.69 514.453 2134.5 510.44C2134.41 506.333 2134.31 502.973 2134.22 500.36C2134.13 497.747 2134.08 496.44 2134.08 496.44L2146.12 495.74C2146.12 495.74 2146.07 496.767 2145.98 498.82C2145.89 500.873 2145.79 503.533 2145.7 506.8C2145.61 509.973 2145.47 513.38 2145.28 517.02C2145.19 520.66 2145.09 524.113 2145 527.38C2144.91 530.647 2144.81 533.353 2144.72 535.5C2144.72 538.113 2144.67 540.96 2144.58 544.04C2144.58 547.027 2144.53 549.827 2144.44 552.44C2144.44 555.053 2144.39 557.2 2144.3 558.88C2144.3 560.56 2144.3 561.4 2144.3 561.4L2135.9 561.68ZM2145.98 595H2134.64L2135.2 576.38L2145 576.1L2145.98 595Z" fill="black"/>
</svg>
